<svg width="169" height="200" viewBox="0 0 169 200" fill="none" xmlns="http://www.w3.org/2000/svg">
<path d="M57.334 24.3C57.334 24.3 39.174 3.226 18.239 11.013C18.239 11.013 29.14 49.932 57.334 24.3Z" fill="#FFF4E9"/>
<path d="M54.55 24.653C54.55 24.653 41.47 9.474 26.394 15.08C26.394 15.08 34.244 43.113 54.55 24.653Z" fill="#FFDBBD"/>
<path d="M68.018 14.783C68.018 14.783 53.371 -1.926 51.197 2.38C49.023 6.683 58.183 21.84 58.183 21.84C58.183 21.84 64.949 21.162 68.018 14.783Z" fill="#F5A636"/>
<path d="M112.391 24.3C112.391 24.3 130.552 3.226 151.487 11.013C151.487 11.013 140.584 49.932 112.391 24.3Z" fill="#FFF4E9"/>
<path d="M115.175 24.653C115.175 24.653 128.254 9.474 143.333 15.08C143.333 15.08 135.479 43.113 115.175 24.653Z" fill="#FFDBBD"/>
<path d="M101.705 14.783C101.705 14.783 116.355 -1.926 118.528 2.38C120.703 6.683 111.543 21.84 111.543 21.84C111.543 21.84 104.773 21.162 101.705 14.783Z" fill="#F5A636"/>
<path d="M17.869 81.386C17.869 81.386 22.577 74.575 28.864 73.946C35.742 73.258 41.927 80.779 35.014 90.994C30.697 97.38 16.509 109.832 13.217 123.081L7.44397 119.213L0.932007 119.736C0.932007 119.736 6.35402 94.118 17.869 81.386Z" fill="#FFF4E9"/>
<path d="M15.171 117.618L2.45599 113.711C1.43699 117.362 0.932983 119.735 0.932983 119.735L7.44501 119.212L13.218 123.08C13.675 121.238 14.348 119.414 15.171 117.618Z" fill="#725F59"/>
<path d="M151.857 81.386C151.857 81.386 147.149 74.575 140.86 73.946C133.982 73.258 127.797 80.779 134.709 90.994C139.027 97.38 153.215 109.832 156.507 123.081L162.282 119.213L168.794 119.736C168.794 119.736 163.371 94.118 151.857 81.386Z" fill="#FFF4E9"/>
<path d="M154.556 117.618L167.268 113.711C168.289 117.362 168.794 119.735 168.794 119.735L162.282 119.212L156.507 123.08C156.051 121.238 155.376 119.414 154.556 117.618Z" fill="#725F59"/>
<path d="M74.997 193.556L81.257 138.713H44.207L57.7 193.556H74.997Z" fill="#FFF4E9"/>
<path d="M74.997 193.556H57.7L59.462 200H65.407L66.347 198.165L67.389 200H74.357L74.997 193.556Z" fill="#725F59"/>
<path d="M88.47 138.713L94.729 193.556H112.024L125.518 138.713H88.47Z" fill="#FFF4E9"/>
<path d="M94.729 193.556H112.024L110.265 200H104.317L103.376 198.165L102.334 200H95.369L94.729 193.556Z" fill="#725F59"/>
<path d="M152.563 110.495C152.563 154.02 122.252 178.279 84.863 178.279C47.47 178.279 17.159 154.02 17.159 110.495C17.159 66.97 47.471 9.3 84.863 9.3C122.253 9.3 152.563 66.97 152.563 110.495Z" fill="#FFF2E6"/>
<path d="M105.855 46.818C112.918 48.638 120.485 47.499 127.41 45.605C129.269 45.094 131.108 44.518 132.933 43.903C121.716 25.593 106.537 11.847 89.652 9.625C89.525 24.059 89.513 42.6 105.855 46.818Z" fill="#564642"/>
<path d="M141.306 69.744C139.132 73.082 137.454 76.535 135.858 80.17C132.757 87.227 128.725 96.642 133.447 103.894C135.761 107.448 139.074 108.231 143.09 108.567C145.931 108.807 148.699 109.01 151.153 110.58C151.61 110.877 152.079 111.216 152.554 111.587C152.557 111.224 152.565 110.863 152.565 110.496C152.565 96.342 149.342 80.698 143.729 66.023C142.938 67.273 142.113 68.508 141.306 69.744Z" fill="#564642"/>
<path d="M24.443 119.642C27.637 118.845 30.899 117.489 32.687 114.575C35.579 109.863 34.485 104.74 33.788 99.606C33.13 94.772 34.653 90.896 37.465 87.006C40.022 83.469 43.494 79.67 43.344 75.022C43.056 66.107 35.606 62.776 28.127 60.732C21.192 76.878 17.159 94.626 17.159 110.496C17.159 114.085 17.371 117.542 17.771 120.869C20.032 120.466 22.321 120.173 24.443 119.642Z" fill="#564642"/>
<path d="M133.876 141.568C133.876 165.141 111.931 178.279 84.863 178.279C57.795 178.279 35.85 165.141 35.85 141.568C35.85 117.995 57.794 86.768 84.863 86.768C111.931 86.769 133.876 117.995 133.876 141.568Z" fill="#FFDBBD"/>
<path d="M114.856 65.17C114.856 76.815 101.426 85 84.863 85C68.297 85 54.87 76.814 54.87 65.17C54.87 53.524 68.297 38.161 84.863 38.161C101.427 38.161 114.856 53.524 114.856 65.17Z" fill="#F7C09D"/>
<path d="M114.856 67.399C114.856 77.119 101.426 85 84.863 85C68.297 85 54.87 77.119 54.87 67.399C54.87 57.676 68.297 44.853 84.863 44.853C101.427 44.854 114.856 57.677 114.856 67.399Z" fill="#FFDBBD"/>
<path d="M77.576 67.015C77.576 71.174 75.874 74.547 73.773 74.547C71.672 74.547 69.971 71.174 69.971 67.015C69.971 62.86 71.672 59.491 73.773 59.491C75.874 59.49 77.576 62.859 77.576 67.015Z" fill="#C69560"/>
<path d="M99.755 67.015C99.755 71.174 98.053 74.547 95.95 74.547C93.852 74.547 92.149 71.174 92.149 67.015C92.149 62.86 93.852 59.491 95.95 59.491C98.053 59.49 99.755 62.859 99.755 67.015Z" fill="#C69560"/>
<path d="M75.602 35.819C75.602 38.51 73.398 40.694 70.681 40.694C67.962 40.694 65.757 38.51 65.757 35.819C65.757 33.128 67.962 30.947 70.681 30.947C73.397 30.947 75.602 33.128 75.602 35.819Z" fill="#33241E"/>
<path d="M70.329 34.299C70.329 35.138 69.642 35.82 68.794 35.82C67.948 35.82 67.259 35.138 67.259 34.299C67.259 33.464 67.948 32.782 68.794 32.782C69.643 32.782 70.329 33.464 70.329 34.299Z" fill="white"/>
<path d="M68.602 37.497C68.602 37.864 68.3 38.161 67.931 38.161C67.559 38.161 67.258 37.864 67.258 37.497C67.258 37.13 67.559 36.833 67.931 36.833C68.301 36.833 68.602 37.13 68.602 37.497Z" fill="white"/>
<path d="M103.966 35.819C103.966 38.51 101.763 40.694 99.046 40.694C96.326 40.694 94.121 38.51 94.121 35.819C94.121 33.128 96.326 30.947 99.046 30.947C101.763 30.947 103.966 33.128 103.966 35.819Z" fill="#33241E"/>
<path d="M98.694 34.299C98.694 35.138 98.008 35.82 97.16 35.82C96.312 35.82 95.626 35.138 95.626 34.299C95.626 33.464 96.313 32.782 97.16 32.782C98.008 32.782 98.694 33.464 98.694 34.299Z" fill="white"/>
<path d="M96.968 37.497C96.968 37.864 96.667 38.161 96.297 38.161C95.925 38.161 95.626 37.864 95.626 37.497C95.626 37.13 95.925 36.833 96.297 36.833C96.667 36.833 96.968 37.13 96.968 37.497Z" fill="white"/>
<path d="M98.172 8.286C97.966 8.286 97.761 8.304 97.559 8.328C97.081 5.903 94.929 4.075 92.343 4.075C91.899 4.075 91.472 4.135 91.06 4.236C90.237 1.775 87.897 0 85.138 0C85.045 0 84.954 0.0109999 84.862 0.0139999C84.771 0.0109999 84.682 0 84.588 0C81.827 0 79.488 1.775 78.666 4.236C78.255 4.135 77.825 4.075 77.385 4.075C74.797 4.075 72.643 5.903 72.165 8.328C71.965 8.304 71.762 8.286 71.552 8.286C68.862 8.286 66.682 10.446 66.682 13.105C66.682 15.772 68.862 17.928 71.552 17.928C72.171 17.928 72.758 17.813 73.303 17.603C74.279 18.76 75.743 19.494 77.385 19.494C77.719 19.494 78.044 19.463 78.361 19.407C79.942 20.48 82.266 21.162 84.863 21.162C87.462 21.162 89.786 20.48 91.369 19.407C91.683 19.463 92.009 19.494 92.345 19.494C93.984 19.494 95.449 18.761 96.425 17.603C96.968 17.813 97.559 17.928 98.174 17.928C100.864 17.928 103.046 15.772 103.046 13.105C103.044 10.446 100.862 8.286 98.172 8.286Z" fill="#725F59"/>
</svg>
