<svg width="165" height="200" viewBox="0 0 165 200" fill="none" xmlns="http://www.w3.org/2000/svg">
<path d="M68.617 176.477C68.617 176.477 74.593 200.078 109.601 194.573C144.61 189.07 147.213 179.751 164.51 184.068C164.51 184.068 161.569 177.994 144.602 181.789C127.636 185.586 109.284 193.259 94.811 188.44C80.339 183.62 80.39 172.143 80.39 172.143L68.617 176.477Z" fill="#FFBBAE"/>
<path d="M11.414 137.622C10.752 138.508 9.657 138.812 8.971 138.302C8.287 137.789 8.26799 136.656 8.92999 135.768C9.59399 134.881 10.686 134.576 11.371 135.087C12.057 135.6 12.076 136.733 11.414 137.622Z" fill="#FFBBAE"/>
<path d="M4.419 134.91C3.569 136.047 2.16799 136.439 1.28699 135.783C0.408985 135.126 0.384983 133.67 1.23498 132.533C2.08498 131.394 3.485 131.002 4.367 131.661C5.244 132.315 5.27 133.77 4.419 134.91Z" fill="#FFBBAE"/>
<path d="M7.84202 137.339C6.98002 138.497 5.55602 138.894 4.66502 138.227C3.77302 137.56 3.75 136.084 4.611 134.93C5.471 133.775 6.89302 133.377 7.78602 134.043C8.67802 134.71 8.70402 136.186 7.84202 137.339Z" fill="#FFBBAE"/>
<path d="M28.151 85.687C17.803 86.852 6.23602 109.164 3.42802 118.013C2.53902 120.811 -2.08198 130.906 2.85902 134.757C4.90802 136.355 7.40701 137.482 9.93101 137.033C13.965 136.32 22.045 126.154 23.848 123.871C27.404 119.363 30.775 114.685 34.049 109.971C35.324 108.132 36.605 106.297 37.849 104.437C45.158 93.528 35.416 84.871 28.151 85.687Z" fill="#BCBCBC"/>
<path d="M13.587 133.839C13.027 135.572 10.706 136.371 8.402 135.627C6.095 134.882 4.67998 132.875 5.23998 131.148C5.79898 129.416 8.12099 128.617 10.426 129.36C12.731 130.102 14.147 132.11 13.587 133.839Z" fill="#FFBBAE"/>
<path d="M151.405 137.622C152.067 138.508 153.161 138.812 153.846 138.302C154.53 137.789 154.549 136.656 153.887 135.768C153.225 134.881 152.133 134.576 151.446 135.087C150.763 135.6 150.743 136.733 151.405 137.622Z" fill="#FFBBAE"/>
<path d="M158.399 134.91C159.249 136.047 160.651 136.439 161.53 135.783C162.411 135.126 162.434 133.67 161.583 132.533C160.733 131.394 159.331 131.002 158.452 131.661C157.575 132.315 157.55 133.77 158.399 134.91Z" fill="#FFBBAE"/>
<path d="M154.977 137.339C155.84 138.497 157.262 138.894 158.153 138.227C159.046 137.56 159.069 136.084 158.21 134.93C157.347 133.775 155.923 133.377 155.03 134.043C154.14 134.71 154.116 136.186 154.977 137.339Z" fill="#FFBBAE"/>
<path d="M134.665 85.687C145.017 86.852 156.583 109.164 159.392 118.013C160.281 120.811 164.9 130.906 159.96 134.757C157.911 136.355 155.411 137.482 152.886 137.033C148.855 136.32 140.773 126.154 138.972 123.871C135.413 119.363 132.044 114.685 128.769 109.971C127.493 108.132 126.214 106.297 124.969 104.437C117.66 93.528 127.402 84.871 134.665 85.687Z" fill="#BCBCBC"/>
<path d="M149.233 133.839C149.79 135.572 152.112 136.371 154.417 135.627C156.722 134.882 158.138 132.875 157.577 131.148C157.02 129.416 154.698 128.617 152.393 129.36C150.089 130.102 148.671 132.11 149.233 133.839Z" fill="#FFBBAE"/>
<path d="M68.172 24.964C69.115 39.621 58.552 52.235 44.574 53.136C30.597 54.035 18.503 42.884 17.557 28.225C16.614 13.566 27.179 0.952001 41.153 0.0510014C55.132 -0.850999 67.227 10.305 68.172 24.964Z" fill="#CBCDCC"/>
<path d="M64.863 25.57C65.629 37.438 57.074 47.649 45.76 48.38C34.443 49.109 24.65 40.077 23.885 28.211C23.12 16.34 31.674 6.128 42.989 5.399C54.308 4.669 64.099 13.7 64.863 25.57Z" fill="#FFBBAE"/>
<path d="M94.648 24.964C93.705 39.621 104.268 52.235 118.244 53.136C132.222 54.035 144.317 42.884 145.261 28.225C146.206 13.566 135.638 0.952001 121.665 0.0510014C107.688 -0.850999 95.594 10.305 94.648 24.964Z" fill="#CBCDCC"/>
<path d="M97.956 25.57C97.191 37.438 105.744 47.649 117.06 48.38C128.375 49.109 138.169 40.077 138.933 28.211C139.697 16.34 131.146 6.128 119.83 5.399C108.513 4.669 98.719 13.7 97.956 25.57Z" fill="#FFBBAE"/>
<path d="M77.529 143.104H42.865L47.698 188.013C45.44 190.442 44.06 193.095 44.06 194.437C44.06 197.288 50.259 199.597 57.907 199.597C65.556 199.597 71.754 197.287 71.754 194.437C71.754 194.393 71.749 194.341 71.747 194.294L77.529 143.104Z" fill="#BCBCBC"/>
<path d="M46.685 197.817C46.514 197.817 46.365 197.696 46.331 197.524C45.798 194.688 48.183 192.347 48.283 192.25C48.426 192.113 48.651 192.117 48.791 192.257C48.928 192.401 48.926 192.628 48.783 192.765C48.761 192.786 46.575 194.942 47.037 197.391C47.073 197.586 46.946 197.774 46.751 197.809C46.728 197.814 46.706 197.817 46.685 197.817Z" fill="#1D1D1B"/>
<path d="M50.789 198.898C50.619 198.898 50.469 198.776 50.435 198.603C49.904 195.768 52.287 193.428 52.389 193.33C52.532 193.194 52.756 193.194 52.895 193.338C53.033 193.482 53.03 193.709 52.887 193.846C52.866 193.867 50.681 196.023 51.141 198.471C51.177 198.664 51.05 198.853 50.855 198.89C50.834 198.894 50.811 198.898 50.789 198.898Z" fill="#1D1D1B"/>
<path d="M55.943 200C55.774 200 55.623 199.88 55.591 199.707C55.116 197.183 57.235 195.102 57.325 195.016C57.47 194.878 57.694 194.881 57.832 195.024C57.971 195.166 57.968 195.394 57.824 195.532C57.807 195.55 55.895 197.435 56.297 199.575C56.333 199.77 56.2061 199.959 56.0121 199.994C55.9871 199.997 55.965 200 55.943 200Z" fill="#1D1D1B"/>
<path d="M85.29 143.104H119.955L115.121 188.013C117.379 190.442 118.758 193.095 118.758 194.437C118.758 197.288 112.559 199.597 104.911 199.597C97.263 199.597 91.063 197.287 91.063 194.437C91.063 194.393 91.069 194.341 91.073 194.294L85.29 143.104Z" fill="#BCBCBC"/>
<path d="M116.136 197.817C116.114 197.817 116.091 197.813 116.07 197.808C115.873 197.773 115.746 197.585 115.782 197.39C116.244 194.941 114.059 192.785 114.038 192.764C113.895 192.627 113.892 192.4 114.028 192.256C114.169 192.112 114.392 192.111 114.536 192.249C114.637 192.347 117.021 194.688 116.488 197.523C116.455 197.696 116.305 197.817 116.136 197.817Z" fill="#1D1D1B"/>
<path d="M112.031 198.898C112.009 198.898 111.986 198.894 111.964 198.889C111.769 198.852 111.642 198.663 111.677 198.47C112.138 196.022 109.954 193.866 109.932 193.845C109.79 193.708 109.786 193.481 109.922 193.337C110.062 193.194 110.288 193.194 110.43 193.329C110.533 193.428 112.915 195.767 112.382 198.602C112.351 198.775 112.199 198.898 112.031 198.898Z" fill="#1D1D1B"/>
<path d="M106.875 200C106.854 200 106.831 199.997 106.81 199.993C106.614 199.958 106.487 199.769 106.523 199.574C106.927 197.428 105.014 195.549 104.994 195.531C104.852 195.393 104.848 195.165 104.987 195.023C105.124 194.88 105.349 194.877 105.495 195.015C105.584 195.101 107.702 197.182 107.228 199.706C107.195 199.88 107.046 200 106.875 200Z" fill="#1D1D1B"/>
<path d="M144.755 122.237C144.755 163.373 116.395 186.303 81.408 186.303C46.426 186.303 18.063 163.373 18.063 122.237C18.063 81.096 46.425 26.593 81.408 26.593C116.394 26.593 144.755 81.096 144.755 122.237Z" fill="#CBCDCC"/>
<path d="M120.756 156.532C120.756 175.648 103.14 186.303 81.408 186.303C59.679 186.303 42.064 175.649 42.064 156.532C42.064 137.417 59.678 112.092 81.408 112.092C103.14 112.092 120.756 137.417 120.756 156.532Z" fill="#FAFAFA"/>
<path d="M72.746 51.656C72.746 54.201 70.685 56.263 68.139 56.263C65.596 56.263 63.534 54.2 63.534 51.656C63.534 49.112 65.597 47.05 68.139 47.05C70.685 47.049 72.746 49.112 72.746 51.656Z" fill="#2D1F1C"/>
<path d="M67.813 50.221C67.813 51.013 67.168 51.656 66.376 51.656C65.584 51.656 64.941 51.013 64.941 50.221C64.941 49.427 65.584 48.784 66.376 48.784C67.168 48.785 67.813 49.427 67.813 50.221Z" fill="white"/>
<path d="M66.197 53.241C66.197 53.589 65.916 53.869 65.569 53.869C65.222 53.869 64.941 53.589 64.941 53.241C64.941 52.896 65.222 52.613 65.569 52.613C65.916 52.613 66.197 52.896 66.197 53.241Z" fill="white"/>
<path d="M99.286 51.656C99.286 54.201 97.222 56.263 94.68 56.263C92.135 56.263 90.073 54.2 90.073 51.656C90.073 49.112 92.136 47.05 94.68 47.05C97.222 47.049 99.286 49.112 99.286 51.656Z" fill="#2D1F1C"/>
<path d="M94.352 50.221C94.352 51.013 93.708 51.656 92.916 51.656C92.124 51.656 91.479 51.013 91.479 50.221C91.479 49.427 92.124 48.784 92.916 48.784C93.708 48.784 94.352 49.427 94.352 50.221Z" fill="white"/>
<path d="M92.735 53.241C92.735 53.589 92.454 53.869 92.109 53.869C91.76 53.869 91.479 53.589 91.479 53.241C91.479 52.896 91.76 52.613 92.109 52.613C92.454 52.613 92.735 52.896 92.735 53.241Z" fill="white"/>
<path d="M105.59 71.863C105.59 60.455 94.763 54.654 81.41 54.654C68.055 54.654 57.23 60.455 57.23 71.863C57.23 83.271 68.054 98.325 81.41 98.325C94.763 98.325 105.59 83.271 105.59 71.863Z" fill="#FAFAFA"/>
<path d="M81.408 91.438V103.241H76.785V96.729C76.785 96.729 79.583 95.355 81.408 91.438Z" fill="white"/>
<path d="M81.682 91.438V103.241H86.305V96.729C86.305 96.729 83.507 95.355 81.682 91.438Z" fill="white"/>
<path d="M75.092 97.227C71.868 97.227 69.098 94.138 68.506 89.88C68.483 89.706 68.603 89.545 68.776 89.523C68.947 89.501 69.115 89.618 69.137 89.794C69.685 93.731 72.191 96.588 75.092 96.588C77.992 96.588 80.498 93.731 81.046 89.794C81.07 89.621 81.234 89.502 81.407 89.523C81.581 89.545 81.703 89.707 81.678 89.88C81.083 94.138 78.316 97.227 75.092 97.227Z" fill="#353534"/>
<path d="M87.73 97.227C84.505 97.227 81.735 94.138 81.143 89.88C81.119 89.706 81.238 89.545 81.414 89.523C81.585 89.501 81.748 89.618 81.772 89.794C82.322 93.731 84.825 96.588 87.729 96.588C90.63 96.588 93.134 93.731 93.682 89.794C93.706 89.621 93.872 89.502 94.04 89.523C94.216 89.545 94.338 89.707 94.313 89.88C93.723 94.138 90.952 97.227 87.73 97.227Z" fill="#353534"/>
<path d="M90.201 82.493C90.201 78.761 86.264 78.195 81.408 78.195C76.555 78.195 72.618 78.76 72.618 82.493C72.618 86.224 76.556 91.148 81.408 91.148C86.265 91.148 90.201 86.224 90.201 82.493Z" fill="#FFBBAE"/>
<path d="M88.659 90.053C88.496 90.053 88.344 89.955 88.281 89.797C88.198 89.589 88.3 89.352 88.508 89.269C88.579 89.24 95.687 86.425 102.399 86.153C102.63 86.161 102.814 86.318 102.824 86.543C102.83 86.768 102.656 86.956 102.433 86.966C95.858 87.234 88.88 89.997 88.809 90.025C88.76 90.044 88.709 90.053 88.659 90.053Z" fill="#353534"/>
<path d="M104.439 92.123C104.409 92.123 104.378 92.12 104.348 92.113C97.162 90.45 88.787 91.371 88.704 91.383C88.481 91.404 88.28 91.248 88.254 91.024C88.228 90.801 88.391 90.599 88.613 90.575C88.698 90.565 97.207 89.63 104.531 91.32C104.75 91.371 104.885 91.591 104.837 91.808C104.793 91.996 104.625 92.123 104.439 92.123Z" fill="#353534"/>
<path d="M101.378 96.144C101.321 96.144 101.266 96.13 101.211 96.106C95.562 93.547 88.511 92.919 88.442 92.913C88.218 92.893 88.051 92.697 88.071 92.473C88.09 92.25 88.289 92.092 88.511 92.104C88.582 92.111 95.771 92.75 101.546 95.367C101.752 95.459 101.842 95.699 101.749 95.904C101.681 96.052 101.534 96.144 101.378 96.144Z" fill="#353534"/>
<path d="M74.161 90.053C74.111 90.053 74.059 90.043 74.011 90.024C73.941 89.997 66.957 87.233 60.387 86.965C60.163 86.955 59.989 86.767 59.996 86.542C60.006 86.317 60.191 86.162 60.421 86.152C67.133 86.424 74.241 89.239 74.312 89.268C74.522 89.351 74.621 89.588 74.538 89.796C74.474 89.956 74.322 90.053 74.161 90.053Z" fill="#353534"/>
<path d="M58.379 92.123C58.193 92.123 58.0259 91.996 57.9829 91.808C57.9319 91.59 58.069 91.37 58.289 91.32C65.612 89.629 74.122 90.565 74.208 90.575C74.431 90.599 74.591 90.802 74.566 91.024C74.54 91.249 74.336 91.405 74.115 91.383C74.032 91.371 65.661 90.45 58.472 92.113C58.439 92.12 58.41 92.123 58.379 92.123Z" fill="#353534"/>
<path d="M61.44 96.144C61.286 96.144 61.137 96.052 61.071 95.903C60.975 95.698 61.068 95.458 61.273 95.366C67.047 92.749 74.236 92.11 74.307 92.103C74.527 92.086 74.7269 92.249 74.7459 92.472C74.7659 92.697 74.6 92.893 74.377 92.912C74.307 92.919 67.254 93.549 61.607 96.105C61.555 96.13 61.496 96.144 61.44 96.144Z" fill="#353534"/>
</svg>
