<svg width="238" height="200" viewBox="0 0 238 200" fill="none" xmlns="http://www.w3.org/2000/svg">
<path d="M73.457 151.71C73.457 151.71 44.235 151.2 41.267 167.259C38.864 180.236 43.23 195.793 49.116 199.277C49.116 199.277 54.524 202.163 52.749 196.406C50.968 190.651 44.889 167.793 52.344 164.135C59.799 160.482 75.285 156.929 78.333 158.181C81.38 159.436 73.457 151.71 73.457 151.71Z" fill="#C60000"/>
<path d="M58.979 132.16C58.979 132.16 30.032 133.186 23.412 146.471C17.525 158.281 18.199 173.584 22.371 181.516C23.844 184.325 26.623 182.817 26.783 180.115C27.139 174.102 23.496 149.389 36.378 145.01C45.394 141.945 53.871 140.441 60.211 138.572C63.371 137.64 58.979 132.16 58.979 132.16Z" fill="#C60000"/>
<path d="M56.642 121.819C56.91 122.888 35.987 127.862 34.239 128.113C20.995 130.005 7.05299 126.702 1.63699 113.019C0.583986 110.367 -0.185002 104.232 1.143 101.675C3.079 97.943 5.85199 104.271 6.53399 105.755C9.38099 111.954 13.016 118.554 20.153 120.272C27.042 121.931 34.557 119.623 41.229 117.964C44.818 117.073 48.401 116.091 52.022 115.339C54.959 114.736 56.642 121.814 56.642 121.819Z" fill="#C60000"/>
<path d="M54.227 105.463C44.594 106.811 34.16 107.451 24.565 105.588C15.642 103.856 8.918 96.649 7.341 87.725C6.895 85.192 7.33 79.645 8.961 77.633C11.061 75.048 12.009 77.94 12.49 79.913C13.078 82.312 13.578 84.658 14.518 86.961C16.786 92.494 21.245 98.75 27.748 99.277C35.935 99.941 44.173 99.576 52.338 98.761C55.022 98.494 54.227 105.463 54.227 105.463Z" fill="#C60000"/>
<path d="M164.663 151.71C164.663 151.71 193.882 151.2 196.852 167.259C199.254 180.236 194.889 195.793 189 199.277C189 199.277 183.59 202.163 185.369 196.406C187.146 190.651 193.228 167.793 185.771 164.135C178.316 160.482 162.828 156.929 159.783 158.181C156.739 159.436 164.663 151.71 164.663 151.71Z" fill="#C60000"/>
<path d="M179.138 132.16C179.138 132.16 208.083 133.186 214.706 146.471C220.591 158.281 219.917 173.584 215.749 181.516C214.271 184.325 211.497 182.817 211.333 180.115C210.976 174.102 214.618 149.389 201.737 145.01C192.721 141.945 184.243 140.441 177.909 138.572C174.747 137.64 179.138 132.16 179.138 132.16Z" fill="#C60000"/>
<path d="M181.476 121.819C181.205 122.888 202.134 127.862 203.88 128.113C217.122 130.005 231.068 126.702 236.478 113.019C237.533 110.367 238.302 104.232 236.978 101.675C235.042 97.943 232.263 104.271 231.583 105.755C228.735 111.954 225.103 118.554 217.968 120.272C211.075 121.931 203.562 119.623 196.886 117.964C193.302 117.073 189.714 116.091 186.099 115.339C183.159 114.736 181.476 121.814 181.476 121.819Z" fill="#C60000"/>
<path d="M183.89 105.463C193.523 106.811 203.955 107.451 213.552 105.588C222.476 103.856 229.202 96.649 230.777 87.725C231.222 85.192 230.785 79.645 229.154 77.633C227.06 75.048 226.109 77.94 225.625 79.913C225.037 82.312 224.543 84.658 223.6 86.961C221.332 92.494 216.875 98.75 210.373 99.277C202.18 99.941 193.945 99.576 185.777 98.761C183.097 98.494 183.89 105.463 183.89 105.463Z" fill="#C60000"/>
<path d="M102.362 88.311C102.362 90.577 100.524 92.416 98.258 92.416C95.99 92.416 94.153 90.576 94.153 88.311V64.988C94.153 62.724 95.991 60.885 98.258 60.885C100.524 60.885 102.362 62.725 102.362 64.988V88.311Z" fill="#C60000"/>
<path d="M109.274 59.357C109.274 65.443 104.342 70.377 98.258 70.377C92.173 70.377 87.236 65.443 87.236 59.357C87.236 53.272 92.174 48.339 98.258 48.339C104.343 48.34 109.274 53.272 109.274 59.357Z" fill="#DDEEFF"/>
<path d="M104.212 59.222C104.212 62.508 101.544 65.176 98.259 65.176C94.968 65.176 92.305 62.508 92.305 59.222C92.305 55.934 94.968 53.268 98.259 53.268C101.544 53.268 104.212 55.934 104.212 59.222Z" fill="#4E292C"/>
<path d="M97.833 57.367C97.833 58.39 97.001 59.221 95.979 59.221C94.954 59.221 94.126 58.39 94.126 57.367C94.126 56.342 94.954 55.51 95.979 55.51C97.001 55.51 97.833 56.342 97.833 57.367Z" fill="white"/>
<path d="M95.745 61.27C95.745 61.721 95.382 62.08 94.935 62.08C94.484 62.08 94.126 61.722 94.126 61.27C94.126 60.825 94.483 60.456 94.935 60.456C95.382 60.455 95.745 60.824 95.745 61.27Z" fill="white"/>
<path d="M143.964 88.311C143.964 90.577 142.128 92.416 139.862 92.416C137.594 92.416 135.753 90.576 135.753 88.311V64.988C135.753 62.724 137.595 60.885 139.862 60.885C142.128 60.885 143.964 62.725 143.964 64.988V88.311Z" fill="#C60000"/>
<path d="M150.878 59.357C150.878 65.443 145.946 70.377 139.862 70.377C133.774 70.377 128.839 65.443 128.839 59.357C128.839 53.272 133.775 48.339 139.862 48.339C145.946 48.34 150.878 53.272 150.878 59.357Z" fill="#DDEEFF"/>
<path d="M145.815 59.222C145.815 62.508 143.145 65.176 139.862 65.176C136.571 65.176 133.905 62.508 133.905 59.222C133.905 55.934 136.571 53.268 139.862 53.268C143.146 53.268 145.815 55.934 145.815 59.222Z" fill="#4E292C"/>
<path d="M139.436 57.367C139.436 58.39 138.604 59.221 137.581 59.221C136.556 59.221 135.724 58.39 135.724 57.367C135.724 56.342 136.556 55.51 137.581 55.51C138.604 55.51 139.436 56.342 139.436 57.367Z" fill="white"/>
<path d="M137.347 61.27C137.347 61.721 136.986 62.08 136.536 62.08C136.085 62.08 135.723 61.722 135.723 61.27C135.723 60.825 136.084 60.456 136.536 60.456C136.985 60.455 137.347 60.824 137.347 61.27Z" fill="white"/>
<path d="M43.694 38.893C43.694 38.893 35.502 10.685 70.855 0.393004C70.855 0.393004 83.702 -1.51 78.563 3.063C73.424 7.637 61.608 9.924 65.04 15.64C68.471 21.361 62.269 18.262 61.323 24.79C60.377 31.318 62.003 30.887 56.85 36.225C51.701 41.561 43.694 38.893 43.694 38.893Z" fill="#A80000"/>
<path d="M55.127 42.324C55.51 42.703 50.188 31.423 56.851 29.633C63.518 27.84 67.33 31.649 68.852 25.553C70.377 19.453 68.852 18.692 74.192 17.166C79.526 15.64 83.338 15.258 84.099 11.068C84.861 6.875 87.957 1.92 90.222 7.255C92.485 12.595 89.053 45.751 67.71 49.947C46.361 54.14 55.127 42.324 55.127 42.324Z" fill="#C60000"/>
<path d="M44.959 76.442C44.959 76.442 30.864 64.019 36.492 46.603C42.12 29.189 52.838 33.74 59.803 40.708C66.77 47.673 52.849 76.229 51.903 76.421C50.962 76.609 44.959 76.442 44.959 76.442Z" fill="#FF0000"/>
<path d="M61.386 72.912C69.605 76.484 79.129 84.904 79.442 89.457C80.402 103.424 63.828 97.541 54.655 91.596C47.134 86.725 41.392 78.198 43.214 74.016C45.035 69.833 53.17 69.337 61.386 72.912Z" fill="#C60000"/>
<path d="M194.423 38.893C194.423 38.893 202.613 10.685 167.263 0.393004C167.263 0.393004 154.419 -1.51 159.556 3.063C164.693 7.637 176.509 9.924 173.079 15.64C169.643 21.361 175.849 18.262 176.794 24.79C177.739 31.318 176.114 30.887 181.267 36.225C186.419 41.561 194.423 38.893 194.423 38.893Z" fill="#A80000"/>
<path d="M182.987 42.324C182.606 42.703 187.93 31.423 181.266 29.633C174.596 27.84 170.789 31.649 169.262 25.553C167.741 19.453 169.262 18.692 163.928 17.166C158.59 15.64 154.78 15.258 154.018 11.068C153.254 6.875 150.161 1.92 147.895 7.255C145.633 12.595 149.067 45.751 170.409 49.947C191.755 54.14 182.987 42.324 182.987 42.324Z" fill="#C60000"/>
<path d="M193.161 76.442C193.161 76.442 207.251 64.019 201.622 46.603C195.997 29.189 185.282 33.74 178.313 40.708C171.348 47.673 185.27 76.229 186.211 76.421C187.155 76.609 193.161 76.442 193.161 76.442Z" fill="#FF0000"/>
<path d="M176.729 72.912C168.512 76.484 158.985 84.904 158.674 89.457C157.715 103.424 174.287 97.541 183.463 91.596C190.984 86.725 196.723 78.198 194.902 74.016C193.085 69.833 184.948 69.337 176.729 72.912Z" fill="#C60000"/>
<path d="M199.909 115.584C199.909 86.554 163.712 70.377 119.057 70.377C74.402 70.377 38.205 86.554 38.205 115.584C38.205 144.61 74.403 183.07 119.057 183.07C163.711 183.07 199.909 144.61 199.909 115.584Z" fill="#FF0000"/>
</svg>
