<svg width="171" height="200" viewBox="0 0 171 200" fill="none" xmlns="http://www.w3.org/2000/svg">
<path d="M81.485 140.296H45.1121L50.184 187.42C47.813 189.971 46.3669 192.752 46.3669 194.16C46.3669 197.152 52.872 199.574 60.897 199.574C68.922 199.574 75.428 197.152 75.428 194.16C75.428 194.113 75.42 194.06 75.418 194.012L81.485 140.296Z" fill="#211F18"/>
<path d="M49.118 197.709C48.94 197.709 48.7829 197.584 48.7509 197.398C48.1899 194.425 50.6919 191.97 50.7979 191.865C50.9469 191.72 51.185 191.724 51.331 191.875C51.474 192.023 51.472 192.262 51.321 192.406C51.3 192.429 49.0069 194.689 49.4909 197.26C49.5259 197.465 49.3929 197.662 49.1899 197.701C49.1669 197.705 49.142 197.709 49.118 197.709Z" fill="#1D1D1B"/>
<path d="M53.426 198.84C53.249 198.84 53.0909 198.715 53.0579 198.535C52.4969 195.558 54.9989 193.103 55.1049 192.998C55.2569 192.857 55.4919 192.857 55.6379 193.008C55.7829 193.156 55.78 193.397 55.63 193.541C55.609 193.561 53.3119 195.822 53.7979 198.393C53.8349 198.598 53.6999 198.795 53.4969 198.834C53.4739 198.838 53.45 198.84 53.426 198.84Z" fill="#1D1D1B"/>
<path d="M58.8371 200C58.6571 200 58.5011 199.875 58.4671 199.693C57.9681 197.043 60.194 194.857 60.287 194.769C60.436 194.624 60.674 194.626 60.819 194.775C60.963 194.927 60.9601 195.164 60.8101 195.308C60.7891 195.328 58.7841 197.306 59.2061 199.55C59.2451 199.755 59.112 199.956 58.907 199.991C58.884 200 58.8601 200 58.8371 200Z" fill="#1D1D1B"/>
<path d="M89.632 140.296H126.007L120.933 187.42C123.306 189.971 124.753 192.752 124.753 194.16C124.753 197.152 118.245 199.574 110.224 199.574C102.197 199.574 95.691 197.152 95.691 194.16C95.691 194.113 95.699 194.06 95.699 194.012L89.632 140.296Z" fill="#211F18"/>
<path d="M121.999 197.709C121.976 197.709 121.952 197.705 121.929 197.701C121.726 197.662 121.593 197.465 121.63 197.26C122.114 194.69 119.819 192.43 119.796 192.406C119.648 192.261 119.646 192.023 119.79 191.875C119.935 191.725 120.171 191.721 120.321 191.865C120.428 191.97 122.928 194.426 122.368 197.398C122.335 197.584 122.177 197.709 121.999 197.709Z" fill="#1D1D1B"/>
<path d="M117.69 198.84C117.669 198.84 117.645 198.838 117.62 198.834C117.417 198.795 117.282 198.598 117.323 198.393C117.805 195.823 115.512 193.561 115.491 193.541C115.339 193.396 115.339 193.156 115.481 193.008C115.626 192.858 115.864 192.858 116.012 192.998C116.119 193.103 118.619 195.559 118.061 198.535C118.026 198.715 117.87 198.84 117.69 198.84Z" fill="#1D1D1B"/>
<path d="M112.284 200C112.261 200 112.235 200 112.212 199.992C112.009 199.957 111.874 199.756 111.911 199.551C112.337 197.301 110.329 195.328 110.307 195.309C110.159 195.168 110.153 194.928 110.297 194.776C110.443 194.628 110.682 194.626 110.83 194.77C110.926 194.858 113.15 197.043 112.65 199.694C112.618 199.875 112.462 200 112.284 200Z" fill="#1D1D1B"/>
<path d="M12.1059 125.934C11.4129 126.866 10.2649 127.185 9.54292 126.649C8.82592 126.112 8.80693 124.92 9.50093 123.989C10.1969 123.057 11.3419 122.739 12.0639 123.275C12.7819 123.811 12.8039 125.002 12.1059 125.934Z" fill="#675357"/>
<path d="M4.76902 123.087C3.87602 124.285 2.40403 124.693 1.48203 124.005C0.560034 123.314 0.534981 121.79 1.42698 120.595C2.31798 119.401 3.78799 118.989 4.71299 119.677C5.63299 120.369 5.66102 121.896 4.76902 123.087Z" fill="#675357"/>
<path d="M8.35994 125.638C7.45394 126.853 5.96198 127.267 5.02498 126.57C4.08998 125.869 4.065 124.322 4.967 123.11C5.872 121.896 7.36498 121.481 8.30098 122.179C9.23698 122.879 9.26294 124.427 8.35994 125.638Z" fill="#675357"/>
<path d="M29.6729 71.437C18.8119 72.658 6.67498 96.074 3.72798 105.359C2.79598 108.295 -2.05305 118.887 3.12995 122.929C5.27995 124.605 7.90295 125.786 10.552 125.319C14.784 124.569 23.266 113.901 25.156 111.505C28.89 106.775 32.426 101.864 35.863 96.917C37.203 94.988 38.5449 93.063 39.8509 91.114C47.5189 79.665 37.2959 70.578 29.6729 71.437Z" fill="#211F18"/>
<path d="M14.388 121.964C13.801 123.781 11.3671 124.62 8.94705 123.841C6.52805 123.061 5.04404 120.954 5.63004 119.141C6.21804 117.324 8.65298 116.485 11.07 117.264C13.489 118.044 14.974 120.151 14.388 121.964Z" fill="#675357"/>
<path d="M159.01 125.934C159.708 126.866 160.853 127.185 161.574 126.649C162.294 126.112 162.313 124.92 161.619 123.989C160.923 123.057 159.774 122.739 159.056 123.275C158.337 123.811 158.316 125.002 159.01 125.934Z" fill="#675357"/>
<path d="M166.35 123.087C167.242 124.285 168.713 124.693 169.636 124.005C170.558 123.314 170.584 121.79 169.693 120.595C168.802 119.401 167.33 118.989 166.406 119.677C165.485 120.369 165.46 121.896 166.35 123.087Z" fill="#675357"/>
<path d="M162.759 125.638C163.664 126.853 165.158 127.267 166.093 126.57C167.029 125.869 167.054 124.322 166.15 123.11C165.246 121.896 163.754 121.481 162.817 122.179C161.88 122.879 161.856 124.427 162.759 125.638Z" fill="#675357"/>
<path d="M141.446 71.437C152.306 72.658 164.444 96.074 167.391 105.359C168.323 108.295 173.17 118.887 167.989 122.929C165.838 124.605 163.215 125.786 160.565 125.319C156.332 124.569 147.852 113.901 145.961 111.505C142.229 106.775 138.693 101.864 135.257 96.917C133.916 94.988 132.574 93.063 131.27 91.114C123.601 79.665 133.823 70.578 141.446 71.437Z" fill="#211F18"/>
<path d="M156.73 121.964C157.316 123.781 159.752 124.62 162.169 123.841C164.591 123.061 166.075 120.954 165.489 119.141C164.903 117.324 162.468 116.485 160.048 117.264C157.629 118.044 156.143 120.151 156.73 121.964Z" fill="#675357"/>
<path d="M72.591 15.346C73.167 24.262 67.9311 31.856 60.8941 32.314C53.8591 32.764 47.689 25.905 47.115 16.988C46.541 8.07299 51.777 0.478992 58.813 0.0209922C65.849 -0.430008 72.019 6.42999 72.591 15.346Z" fill="#211F18"/>
<path d="M67.7651 15.659C68.1201 21.195 64.868 25.912 60.497 26.191C56.128 26.474 52.2981 22.215 51.9421 16.675C51.5861 11.14 54.8381 6.42299 59.2061 6.14299C63.5771 5.85999 67.4071 10.12 67.7651 15.659Z" fill="#421904"/>
<path d="M98.5279 15.346C97.9519 24.262 103.188 31.856 110.223 32.314C117.262 32.764 123.43 25.905 124.004 16.988C124.578 8.07299 119.34 0.478992 112.305 0.0209922C105.269 -0.430008 99.1029 6.42999 98.5279 15.346Z" fill="#211F18"/>
<path d="M103.356 15.659C102.999 21.195 106.251 25.912 110.62 26.191C114.989 26.474 118.821 22.215 119.177 16.675C119.532 11.14 116.282 6.42299 111.911 6.14299C107.544 5.85999 103.712 10.12 103.356 15.659Z" fill="#421904"/>
<path d="M152.031 107.679C152.031 150.848 122.27 174.909 85.559 174.909C48.846 174.909 19.0861 150.848 19.0861 107.679C19.0861 64.508 48.846 7.31499 85.559 7.31499C122.271 7.31499 152.031 64.508 152.031 107.679Z" fill="#211F18"/>
<path d="M133.681 138.499C133.681 161.878 112.136 174.909 85.5601 174.909C58.9821 174.909 37.437 161.878 37.437 138.499C37.437 115.119 58.9821 84.145 85.5601 84.145C112.136 84.145 133.681 115.119 133.681 138.499Z" fill="#675357"/>
<path d="M76.468 33.617C76.468 36.287 74.304 38.449 71.635 38.449C68.966 38.449 66.802 36.287 66.802 33.617C66.802 30.948 68.966 28.782 71.635 28.782C74.304 28.782 76.468 30.948 76.468 33.617Z" fill="black"/>
<path d="M71.29 32.11C71.29 32.942 70.6161 33.617 69.7841 33.617C68.9521 33.617 68.277 32.942 68.277 32.11C68.277 31.277 68.9521 30.602 69.7841 30.602C70.6161 30.602 71.29 31.277 71.29 32.11Z" fill="white"/>
<path d="M69.597 35.279C69.597 35.641 69.302 35.938 68.937 35.938C68.572 35.938 68.278 35.641 68.278 35.279C68.278 34.918 68.572 34.621 68.937 34.621C69.302 34.621 69.597 34.917 69.597 35.279Z" fill="white"/>
<path d="M104.317 33.617C104.317 36.287 102.153 38.449 99.483 38.449C96.815 38.449 94.651 36.287 94.651 33.617C94.651 30.948 96.815 28.782 99.483 28.782C102.153 28.782 104.317 30.948 104.317 33.617Z" fill="black"/>
<path d="M99.14 32.11C99.14 32.942 98.466 33.617 97.634 33.617C96.802 33.617 96.1281 32.942 96.1281 32.11C96.1281 31.277 96.802 30.602 97.634 30.602C98.466 30.602 99.14 31.277 99.14 32.11Z" fill="white"/>
<path d="M97.444 35.279C97.444 35.641 97.151 35.938 96.786 35.938C96.421 35.938 96.1281 35.641 96.1281 35.279C96.1281 34.918 96.421 34.621 96.786 34.621C97.151 34.621 97.444 34.917 97.444 35.279Z" fill="white"/>
<path d="M106.972 63.359C106.972 77.43 97.3821 79.563 85.5601 79.563C73.7341 79.563 64.1479 77.43 64.1479 63.359C64.1479 49.292 73.7341 30.73 85.5601 30.73C97.3821 30.73 106.972 49.291 106.972 63.359Z" fill="#675357"/>
<path d="M78.0971 74.603C74.2911 74.603 71.019 70.956 70.32 65.93C70.293 65.726 70.433 65.534 70.64 65.505C70.84 65.479 71.036 65.62 71.064 65.824C71.712 70.474 74.6711 73.852 78.0971 73.852C81.5251 73.852 84.482 70.474 85.13 65.824C85.159 65.62 85.3531 65.481 85.5561 65.505C85.7611 65.534 85.904 65.726 85.876 65.93C85.177 70.956 81.9031 74.603 78.0971 74.603Z" fill="#1D1D1B"/>
<path d="M93.022 74.603C89.215 74.603 85.942 70.956 85.243 65.93C85.216 65.726 85.358 65.534 85.563 65.505C85.766 65.479 85.959 65.62 85.989 65.824C86.639 70.474 89.594 73.852 93.022 73.852C96.448 73.852 99.4051 70.474 100.055 65.824C100.081 65.62 100.28 65.481 100.479 65.505C100.686 65.534 100.829 65.726 100.801 65.93C100.101 70.956 96.827 74.603 93.022 74.603Z" fill="#1D1D1B"/>
<path d="M96.548 62.326C96.548 66.993 91.63 67.701 85.558 67.701C79.49 67.701 74.568 66.993 74.568 62.326C74.568 57.662 79.49 51.507 85.558 51.507C91.63 51.506 96.548 57.662 96.548 62.326Z" fill="#160903"/>
<path d="M82.452 63.086C82.452 64.629 81.694 65.88 80.757 65.88C79.821 65.88 79.062 64.629 79.062 63.086C79.062 61.542 79.822 60.291 80.757 60.291C81.694 60.291 82.452 61.543 82.452 63.086Z" fill="black"/>
<path d="M92.058 63.086C92.058 64.629 91.296 65.88 90.361 65.88C89.426 65.88 88.668 64.629 88.668 63.086C88.668 61.542 89.426 60.291 90.361 60.291C91.296 60.291 92.058 61.543 92.058 63.086Z" fill="black"/>
</svg>
