<svg width="159" height="200" viewBox="0 0 159 200" fill="none" xmlns="http://www.w3.org/2000/svg">
<path d="M117.385 154.883C118.932 153.656 120.407 152.35 121.778 150.953C122.057 151.308 122.337 151.658 122.616 152.023C122.616 152.023 134.902 164.343 129.317 185.037C129.317 185.037 129.197 168.896 117.385 154.883Z" fill="#82461E"/>
<path d="M123.556 181.561C123.526 181.561 123.497 181.557 123.469 181.549C123.274 181.502 123.155 181.303 123.203 181.11C124.551 175.722 128.263 172.917 128.42 172.799C128.583 172.679 128.809 172.713 128.928 172.875C129.047 173.035 129.014 173.262 128.855 173.382C128.817 173.41 125.19 176.16 123.907 181.285C123.867 181.449 123.719 181.561 123.556 181.561Z" fill="#3F2518"/>
<path d="M125.959 185.4H125.953C125.754 185.396 125.595 185.231 125.598 185.031C125.707 179.347 128.862 176.338 128.994 176.213C129.139 176.076 129.371 176.085 129.506 176.232C129.644 176.378 129.637 176.608 129.49 176.745C129.461 176.772 126.426 179.683 126.322 185.046C126.321 185.242 126.158 185.4 125.959 185.4Z" fill="#3F2518"/>
<path d="M132.388 185.4C132.383 185.4 132.381 185.4 132.377 185.4C132.178 185.394 132.019 185.226 132.024 185.027C132.136 181.271 129.637 179.613 129.529 179.545C129.363 179.437 129.312 179.211 129.422 179.044C129.529 178.875 129.752 178.828 129.922 178.933C130.042 179.01 132.875 180.868 132.75 185.049C132.744 185.245 132.583 185.4 132.388 185.4Z" fill="#3F2518"/>
<path d="M133.84 180.592C133.674 180.592 133.526 180.481 133.485 180.313C132.57 176.424 129.616 175.133 129.585 175.12C129.401 175.042 129.314 174.83 129.394 174.643C129.471 174.458 129.683 174.374 129.869 174.452C130.003 174.509 133.192 175.904 134.194 180.147C134.238 180.342 134.118 180.538 133.923 180.583C133.895 180.589 133.865 180.592 133.84 180.592Z" fill="#3F2518"/>
<path d="M134.929 175.752C134.789 175.752 134.658 175.673 134.596 175.539C132.549 170.99 129.311 171.273 129.28 171.274C129.085 171.296 128.901 171.149 128.884 170.951C128.863 170.751 129.005 170.572 129.205 170.553C129.358 170.534 133.001 170.223 135.259 175.241C135.342 175.425 135.261 175.638 135.077 175.721C135.027 175.743 134.978 175.752 134.929 175.752Z" fill="#3F2518"/>
<path d="M144.666 73.532C144.41 73.561 144.145 73.45 143.988 73.224C136.763 62.724 118.781 58.06 118.599 58.013C118.212 57.914 117.976 57.519 118.076 57.132C118.176 56.741 118.572 56.509 118.957 56.607C119.148 56.656 123.672 57.814 129.186 60.332C134.307 62.669 141.235 66.66 145.185 72.4C145.414 72.729 145.331 73.183 144.998 73.408C144.896 73.481 144.781 73.521 144.666 73.532Z" fill="#3F2518"/>
<path d="M144.764 79.468C144.508 79.495 144.244 79.389 144.086 79.161C137.632 69.898 120.709 62.74 120.54 62.669C120.171 62.516 119.995 62.088 120.15 61.72C120.306 61.348 120.734 61.175 121.099 61.329C121.811 61.627 138.581 68.721 145.276 78.33C145.506 78.658 145.426 79.113 145.095 79.341C144.994 79.412 144.879 79.454 144.764 79.468Z" fill="#3F2518"/>
<path d="M144.176 85.006C143.897 85.045 143.606 84.918 143.451 84.656C137.715 74.931 121.384 66.516 121.219 66.432C120.864 66.25 120.722 65.812 120.904 65.455C121.086 65.097 121.524 64.958 121.882 65.14C122.567 65.489 138.751 73.828 144.702 83.919C144.906 84.264 144.79 84.708 144.445 84.912C144.361 84.963 144.27 84.994 144.176 85.006Z" fill="#3F2518"/>
<path d="M142.27 63.948C142.075 63.948 141.881 63.87 141.737 63.717C134.057 55.434 116.311 50.696 116.135 50.648C115.746 50.549 115.514 50.151 115.618 49.762C115.718 49.373 116.12 49.146 116.505 49.245C117.247 49.44 134.84 54.1391 142.804 62.7281C143.077 63.0231 143.058 63.482 142.765 63.753C142.623 63.884 142.447 63.948 142.27 63.948Z" fill="#3F2518"/>
<path d="M145.693 141.078C145.347 141.078 145.041 140.832 144.976 140.479C142.712 127.947 128.238 116.291 128.093 116.175C127.78 115.925 127.726 115.466 127.976 115.154C128.226 114.842 128.68 114.789 128.998 115.039C129.15 115.162 132.795 118.08 136.786 122.642C140.492 126.879 145.168 133.367 146.406 140.22C146.476 140.616 146.217 140.994 145.82 141.065C145.778 141.074 145.734 141.078 145.693 141.078Z" fill="#3F2518"/>
<path d="M143.74 146.654C143.396 146.654 143.091 146.408 143.028 146.058C141 134.949 128.58 121.415 128.455 121.28C128.184 120.987 128.198 120.527 128.494 120.256C128.787 119.983 129.247 119.998 129.519 120.296C130.042 120.861 142.353 134.275 144.455 145.798C144.528 146.194 144.266 146.57 143.871 146.644C143.826 146.651 143.783 146.654 143.74 146.654Z" fill="#3F2518"/>
<path d="M140.836 152.193C140.461 152.193 140.143 151.904 140.113 151.523C139.229 140.262 128.25 125.537 128.138 125.388C127.898 125.068 127.962 124.613 128.283 124.371C128.604 124.134 129.057 124.196 129.301 124.517C129.763 125.132 140.643 139.731 141.561 151.41C141.592 151.809 141.293 152.159 140.895 152.191C140.875 152.193 140.856 152.193 140.836 152.193Z" fill="#3F2518"/>
<path d="M146.141 129.105C145.864 129.105 145.604 128.949 145.481 128.683C140.753 118.423 125.358 108.408 125.204 108.307C124.866 108.09 124.768 107.64 124.988 107.304C125.204 106.967 125.652 106.869 125.991 107.087C126.637 107.505 141.898 117.437 146.8 128.075C146.967 128.44 146.81 128.87 146.445 129.038C146.346 129.084 146.242 129.105 146.141 129.105Z" fill="#3F2518"/>
<path d="M53.189 35.86C53.189 35.86 59.408 38.23 61.288 31.001C64.082 20.248 53.817 7.527 48.318 0C48.318 0 28.674 18.203 53.189 35.86Z" fill="#82461E"/>
<path d="M53.8261 33.688C53.8261 33.688 61.2691 27.405 47.2131 7.74402C47.2131 7.74402 36.9781 21.549 53.8261 33.688Z" fill="#F7CBAD"/>
<path d="M101.236 35.86C101.236 35.86 95.016 38.23 93.137 31.001C90.341 20.248 100.607 7.527 106.105 0C106.105 0 125.749 18.203 101.236 35.86Z" fill="#82461E"/>
<path d="M100.598 33.688C100.598 33.688 93.157 27.405 107.212 7.74402C107.212 7.74402 117.447 21.549 100.598 33.688Z" fill="#F7CBAD"/>
<path d="M16.193 86.623C16.193 86.623 20.6459 80.115 26.5959 79.514C33.1029 78.856 38.954 86.044 32.417 95.805C28.329 101.911 14.905 113.811 11.79 126.474L6.32495 122.78L0.165039 123.278C0.165039 123.278 5.29599 98.792 16.193 86.623Z" fill="#82461E"/>
<path d="M13.639 121.256L1.60999 117.522C0.642985 121.01 0.166992 123.278 0.166992 123.278L6.32703 122.78L11.792 126.474C12.223 124.714 12.859 122.971 13.639 121.256Z" fill="#38271D"/>
<path d="M142.975 86.623C142.975 86.623 138.519 80.115 132.57 79.514C126.063 78.856 120.212 86.044 126.749 95.805C130.837 101.911 144.263 113.811 147.378 126.474L152.841 122.78L159.001 123.278C159.001 123.278 153.871 98.792 142.975 86.623Z" fill="#82461E"/>
<path d="M145.529 121.256L157.558 117.522C158.523 121.01 158.999 123.278 158.999 123.278L152.839 122.78L147.376 126.474C146.944 124.714 146.307 122.971 145.529 121.256Z" fill="#38271D"/>
<path d="M70.25 193.84L76.172 141.418H41.115L53.8831 193.84H70.25Z" fill="#82461E"/>
<path d="M70.25 193.84H53.8831L55.55 200H61.176L62.064 198.245L63.051 200H69.645L70.25 193.84Z" fill="#38271D"/>
<path d="M82.998 141.418L88.92 193.84H105.285L118.055 141.418H82.998Z" fill="#82461E"/>
<path d="M88.92 193.84H105.285L103.619 200H97.9919L97.104 198.245L96.1169 200H89.525L88.92 193.84Z" fill="#38271D"/>
<path d="M124.617 50.059C126.051 48.536 127.756 46.381 129.508 43.373C132.967 37.432 121.76 38.002 116.424 38.576C106.005 26.011 93.298 17.724 79.584 17.724C65.861 17.724 53.147 26.019 42.725 38.597C37.477 38.017 25.9271 37.355 29.4301 43.372C31.2401 46.478 32.9981 48.673 34.4611 50.202C22.7661 69.224 15.5229 93.54 15.5229 114.446C15.5229 156.048 44.203 179.238 79.584 179.238C114.963 179.238 143.645 156.048 143.645 114.446C143.645 93.488 136.363 69.102 124.617 50.059Z" fill="#9D5A26"/>
<path d="M125.959 144.148C125.959 166.68 105.195 179.239 79.584 179.239C53.971 179.239 33.207 166.68 33.207 144.148C33.207 121.615 53.971 91.767 79.584 91.767C105.195 91.768 125.959 121.615 125.959 144.148Z" fill="#F7CBAD"/>
<path d="M51.803 44.825C51.803 47.398 49.719 49.484 47.145 49.484C44.575 49.484 42.488 47.398 42.488 44.825C42.488 42.254 44.575 40.168 47.145 40.168C49.719 40.168 51.803 42.254 51.803 44.825Z" fill="#3F2518"/>
<path d="M46.814 43.373C46.814 44.176 46.163 44.825 45.361 44.825C44.56 44.825 43.91 44.176 43.91 43.373C43.91 42.572 44.56 41.922 45.361 41.922C46.164 41.922 46.814 42.572 46.814 43.373Z" fill="white"/>
<path d="M45.182 46.43C45.182 46.78 44.895 47.065 44.545 47.065C44.195 47.065 43.91 46.78 43.91 46.43C43.91 46.078 44.195 45.795 44.545 45.795C44.895 45.795 45.182 46.078 45.182 46.43Z" fill="white"/>
<path d="M115.592 44.825C115.592 47.398 113.508 49.484 110.936 49.484C108.364 49.484 106.277 47.398 106.277 44.825C106.277 42.254 108.364 40.168 110.936 40.168C113.508 40.168 115.592 42.254 115.592 44.825Z" fill="#3F2518"/>
<path d="M110.604 43.373C110.604 44.176 109.952 44.825 109.153 44.825C108.35 44.825 107.7 44.176 107.7 43.373C107.7 42.572 108.35 41.922 109.153 41.922C109.951 41.922 110.604 42.572 110.604 43.373Z" fill="white"/>
<path d="M108.971 46.43C108.971 46.78 108.686 47.065 108.334 47.065C107.982 47.065 107.699 46.78 107.699 46.43C107.699 46.078 107.982 45.795 108.334 45.795C108.686 45.795 108.971 46.078 108.971 46.43Z" fill="white"/>
<path d="M56.107 80.477C56.107 80.477 21.989 75.215 26.889 53.983C26.889 53.983 27.615 47.268 21.807 56.885C15.999 66.503 18.854 97.257 60.255 99.937L56.107 80.477Z" fill="#F2E9E2"/>
<path d="M101.844 80.477C101.844 80.477 135.961 75.215 131.061 53.983C131.061 53.983 130.334 47.268 136.143 56.885C141.95 66.503 139.096 97.257 97.692 99.937L101.844 80.477Z" fill="#F2E9E2"/>
<path d="M101.064 77.211C97.187 76.502 112.908 71.222 106.246 65.051C100.866 60.071 101.088 53.172 97.201 48.942C96.0821 48.047 94.9101 47.219 93.6851 46.475C93.6481 46.459 93.6191 46.444 93.5811 46.43C92.7721 46.089 92.1399 45.721 91.6429 45.338C87.9489 43.461 83.872 42.34 79.583 42.34C75.259 42.34 71.1521 43.481 67.4351 45.385C66.9561 45.746 66.349 46.089 65.595 46.41C64.292 47.193 63.047 48.07 61.863 49.023C58.054 53.259 58.237 60.101 52.89 65.05C46.228 71.221 61.949 76.501 58.074 77.21C50.207 78.646 49.416 82.86 49.4 82.952C50.109 95.426 63.347 105.374 79.584 105.374C95.789 105.374 109.01 95.466 109.764 83.026C109.747 82.981 109.739 82.957 109.739 82.957C109.739 82.957 109.018 78.662 101.064 77.211Z" fill="#A8642C"/>
<path d="M67.27 45.063C66.644 45.384 66.018 45.734 65.408 46.1C65.245 46.198 65.184 46.405 65.272 46.577C65.335 46.7 65.463 46.774 65.596 46.774C65.643 46.774 65.6921 46.764 65.7371 46.745C66.4911 46.424 67.137 46.065 67.653 45.678C67.803 45.564 67.844 45.355 67.743 45.195C67.643 45.033 67.438 44.977 67.27 45.063Z" fill="#562F1E"/>
<path d="M93.8731 46.165C93.2031 45.758 92.508 45.371 91.809 45.016C91.644 44.934 91.438 44.987 91.337 45.146C91.236 45.305 91.274 45.514 91.422 45.628C91.972 46.05 92.651 46.432 93.48 46.781C93.485 46.784 93.538 46.808 93.543 46.809C93.589 46.83 93.638 46.838 93.687 46.838C93.818 46.838 93.943 46.767 94.007 46.641C94.095 46.472 94.0351 46.264 93.8731 46.165Z" fill="#562F1E"/>
<path d="M98.751 92.609C98.851 91.91 98.91 91.217 98.91 90.546C98.91 81.898 90.256 75.82 79.584 75.82C68.91 75.82 60.256 81.897 60.256 90.546C60.256 91.218 60.315 91.91 60.416 92.609H98.751Z" fill="#E2AF8D"/>
<path d="M63.764 93.388C65.075 100.129 71.657 107.7 79.584 107.7C87.51 107.7 94.09 100.13 95.406 93.388H63.764Z" fill="#8D2E15"/>
<path d="M98.91 92.227C98.91 87.106 90.256 82.958 79.584 82.958C68.91 82.958 60.256 87.106 60.256 92.227C60.256 97.344 68.91 104.1 79.584 104.1C90.256 104.1 98.91 97.344 98.91 92.227Z" fill="#F7CBAD"/>
<path d="M74.8879 92.428C74.8879 90.239 73.791 88.463 72.438 88.463C71.085 88.463 69.989 90.238 69.989 92.428C69.989 94.617 71.085 96.392 72.438 96.392C73.791 96.392 74.8879 94.616 74.8879 92.428Z" fill="#3F2518"/>
<path d="M89.179 92.428C89.179 90.239 88.082 88.463 86.73 88.463C85.376 88.463 84.2791 90.238 84.2791 92.428C84.2791 94.617 85.376 96.392 86.73 96.392C88.082 96.392 89.179 94.616 89.179 92.428Z" fill="#3F2518"/>
<path d="M69.988 23.191C69.968 23.191 69.9489 23.189 69.9289 23.188C69.5269 23.156 69.2329 22.805 69.2629 22.406C69.2919 22.068 69.8369 14.101 61.6429 12.779C61.2489 12.714 60.98 12.341 61.042 11.945C61.107 11.55 61.478 11.281 61.874 11.343C71.409 12.884 70.719 22.429 70.712 22.526C70.679 22.904 70.363 23.191 69.988 23.191Z" fill="#3F2518"/>
<path d="M73.166 20.59C72.775 20.59 72.4529 20.282 72.4389 19.889C72.0989 10.028 66.4939 7.75001 66.2569 7.65901C65.8819 7.51401 65.696 7.09602 65.837 6.72102C65.979 6.34902 66.394 6.161 66.769 6.3C67.044 6.404 73.515 8.95404 73.89 19.84C73.904 20.24 73.589 20.576 73.191 20.59C73.182 20.59 73.174 20.59 73.166 20.59Z" fill="#3F2518"/>
<path d="M65.5959 25.309C65.3129 25.309 65.044 25.143 64.926 24.868C64.914 24.837 63.5939 21.825 60.3659 20.564C57.9019 19.604 54.956 19.876 51.612 21.379C51.244 21.541 50.816 21.379 50.652 21.012C50.487 20.648 50.6519 20.217 51.0179 20.054C54.7389 18.383 58.068 18.102 60.915 19.221C64.714 20.715 66.2019 24.155 66.2629 24.3C66.4189 24.67 66.245 25.095 65.874 25.252C65.784 25.29 65.6889 25.309 65.5959 25.309Z" fill="#3F2518"/>
<path d="M77.1579 23.191C76.7889 23.191 76.473 22.912 76.437 22.54C75.525 13.5 77.46 5.84995 77.542 5.52695C77.644 5.13995 78.043 4.90796 78.427 5.00596C78.818 5.10596 79.0479 5.50197 78.9499 5.89097C78.9289 5.96697 76.996 13.624 77.88 22.394C77.919 22.792 77.63 23.148 77.229 23.189C77.206 23.19 77.1819 23.191 77.1579 23.191Z" fill="#3F2518"/>
<path d="M79.586 21.443C79.537 21.443 79.4889 21.437 79.4399 21.427C79.0479 21.347 78.792 20.964 78.873 20.571C80.811 10.98 87.676 8.22798 87.967 8.11698C88.34 7.97098 88.761 8.15799 88.906 8.53299C89.049 8.90599 88.864 9.32598 88.488 9.47098C88.216 9.57998 82.068 12.092 80.295 20.86C80.226 21.203 79.922 21.443 79.586 21.443Z" fill="#3F2518"/>
<path d="M84.4511 20.584C84.4001 20.584 84.348 20.5769 84.299 20.5659C83.912 20.4819 83.6631 20.111 83.7381 19.724C83.7711 19.559 84.6361 15.644 93.4571 12.732C93.8361 12.601 94.247 12.814 94.374 13.195C94.5 13.575 94.293 13.986 93.912 14.111C86.03 16.714 85.168 19.985 85.162 20.018C85.082 20.352 84.7801 20.584 84.4511 20.584Z" fill="#3F2518"/>
<path d="M88.229 24.219C88.098 24.219 87.969 24.186 87.85 24.113C87.508 23.904 87.401 23.459 87.609 23.115C87.797 22.806 92.356 15.593 103.948 17.398C104.343 17.459 104.616 17.83 104.553 18.226C104.491 18.623 104.121 18.888 103.726 18.832C93.083 17.178 88.89 23.804 88.849 23.872C88.712 24.097 88.471 24.219 88.229 24.219Z" fill="#3F2518"/>
</svg>
