<svg width="176" height="200" viewBox="0 0 176 200" fill="none" xmlns="http://www.w3.org/2000/svg">
<path d="M166.293 135.422C166.293 135.422 150.923 134.523 145.114 140.819L146.754 141.068C146.754 141.068 138.173 144.639 134.992 153.051L137.194 152.436L137.192 152.439C137.184 152.449 136.342 153.689 135.346 155.832C134.856 156.728 134.359 157.622 133.828 158.501C130.027 164.817 124.549 169.258 117.5 171.576C110.722 173.803 101.68 174.345 95.766 169.625C91.828 166.485 89.602 161.925 88.383 157.121C83.918 157.838 71.672 159.799 71.672 159.799C70.748 159.948 71.899 164.666 71.978 164.992C72.976 169.146 74.488 173.366 76.784 176.986C83.214 187.126 96.739 191.258 108.009 192.436C115.592 193.228 123.28 192.891 130.719 191.187C134.367 190.354 137.933 189.25 141.396 187.829C145.244 186.249 149.209 184.328 153.001 182.054L153.011 182.058L152.263 184.532C152.263 184.532 162.302 179.501 165.286 172.392C165.286 172.392 165.753 174.54 165.214 176.03C165.214 176.03 171.298 169.001 172.657 160.754C172.657 160.754 173.08 164.747 172.657 166.727C172.657 166.727 181.583 145.495 166.293 135.422Z" fill="#723A15"/>
<path d="M166.293 135.422C166.293 135.422 150.923 134.523 145.114 140.819L146.754 141.068C146.754 141.068 138.173 144.639 134.992 153.051L137.194 152.436L137.192 152.439C137.184 152.449 136.342 153.689 135.346 155.832C134.856 156.728 134.359 157.622 133.828 158.501C132.408 160.86 130.756 162.959 128.872 164.781C131.129 163.861 136.27 161.982 135.983 162.318C132.812 166.043 130.47 170.402 127.224 174.057C130.8 172.484 134.421 171.018 138.128 169.768C138.464 169.653 133.663 177.368 131.028 180.764C136.527 179.806 141.59 177.368 146.759 175.344C147.028 175.239 143.641 183.844 141.598 187.739C145.385 186.173 149.272 184.288 152.998 182.053L153.008 182.057L152.26 184.531C152.26 184.531 162.299 179.5 165.283 172.391C165.283 172.391 165.75 174.539 165.211 176.029C165.211 176.029 171.295 169 172.654 160.753C172.654 160.753 173.077 164.746 172.654 166.726C172.657 166.726 181.583 145.495 166.293 135.422Z" fill="#EFE7DF"/>
<path d="M77.707 142.963H42.956L47.804 187.984C45.538 190.419 44.156 193.076 44.156 194.422C44.156 197.28 50.37 199.594 58.036 199.594C65.703 199.594 71.919 197.28 71.919 194.422C71.919 194.378 71.912 194.327 71.909 194.278L77.707 142.963Z" fill="#5B290E"/>
<path d="M46.786 197.81C46.616 197.81 46.465 197.69 46.432 197.517C45.897 194.676 48.287 192.327 48.389 192.231C48.532 192.092 48.756 192.095 48.897 192.239C49.034 192.381 49.031 192.609 48.889 192.747C48.868 192.77 46.676 194.929 47.138 197.385C47.176 197.58 47.047 197.768 46.852 197.806C46.83 197.808 46.808 197.81 46.786 197.81Z" fill="#56514E"/>
<path d="M50.899 198.891C50.729 198.891 50.579 198.772 50.545 198.6C50.014 195.758 52.4 193.411 52.503 193.312C52.648 193.175 52.873 193.178 53.012 193.32C53.151 193.464 53.147 193.69 53.002 193.831C52.982 193.852 50.791 196.011 51.254 198.467C51.29 198.662 51.162 198.85 50.967 198.888C50.944 198.89 50.923 198.891 50.899 198.891Z" fill="#56514E"/>
<path d="M56.067 200C55.897 200 55.747 199.88 55.713 199.707C55.238 197.176 57.363 195.088 57.452 195.002C57.596 194.864 57.822 194.866 57.963 195.01C58.1 195.152 58.096 195.381 57.953 195.518C57.933 195.539 56.017 197.428 56.42 199.574C56.457 199.769 56.329 199.958 56.135 199.994C56.112 199.998 56.089 200 56.067 200Z" fill="#56514E"/>
<path d="M85.595 142.963H120.345L115.499 187.984C117.762 190.419 119.144 193.076 119.144 194.422C119.144 197.28 112.93 199.594 105.264 199.594C97.598 199.594 91.383 197.28 91.383 194.422C91.383 194.378 91.387 194.327 91.391 194.278L85.595 142.963Z" fill="#5B290E"/>
<path d="M116.517 197.81C116.687 197.81 116.836 197.69 116.869 197.517C117.404 194.676 115.015 192.327 114.912 192.231C114.771 192.092 114.544 192.095 114.405 192.239C114.267 192.381 114.269 192.609 114.413 192.747C114.434 192.77 116.626 194.929 116.162 197.385C116.127 197.58 116.254 197.768 116.449 197.806C116.471 197.808 116.493 197.81 116.517 197.81Z" fill="#56514E"/>
<path d="M112.401 198.891C112.571 198.891 112.722 198.772 112.754 198.6C113.288 195.758 110.9 193.411 110.798 193.312C110.654 193.175 110.429 193.178 110.288 193.32C110.151 193.464 110.153 193.69 110.298 193.831C110.318 193.852 112.509 196.011 112.047 198.467C112.011 198.662 112.138 198.85 112.333 198.888C112.356 198.89 112.38 198.891 112.401 198.891Z" fill="#56514E"/>
<path d="M107.233 200C107.403 200 107.553 199.88 107.585 199.707C108.063 197.176 105.938 195.088 105.847 195.002C105.704 194.864 105.479 194.866 105.338 195.01C105.201 195.152 105.204 195.381 105.346 195.518C105.366 195.539 107.284 197.428 106.879 199.574C106.842 199.769 106.971 199.958 107.166 199.994C107.188 199.998 107.211 200 107.233 200Z" fill="#56514E"/>
<path d="M151.765 127.622C152.429 128.512 153.526 128.817 154.214 128.304C154.9 127.792 154.919 126.656 154.255 125.766C153.59 124.876 152.493 124.57 151.808 125.084C151.12 125.598 151.102 126.734 151.765 127.622Z" fill="#E5D7CA"/>
<path d="M158.776 124.904C159.628 126.046 161.035 126.438 161.915 125.78C162.796 125.122 162.821 123.663 161.969 122.523C161.117 121.38 159.712 120.988 158.831 121.647C157.948 122.305 157.923 123.765 158.776 124.904Z" fill="#E5D7CA"/>
<path d="M155.346 127.341C156.21 128.499 157.637 128.898 158.531 128.231C159.426 127.561 159.449 126.082 158.586 124.925C157.721 123.768 156.297 123.369 155.402 124.037C154.507 124.704 154.483 126.185 155.346 127.341Z" fill="#E5D7CA"/>
<path d="M134.985 75.56C145.36 76.728 156.954 99.096 159.77 107.966C160.66 110.771 165.292 120.891 160.342 124.751C158.286 126.353 155.781 127.481 153.248 127.034C149.205 126.317 141.104 116.126 139.3 113.838C135.732 109.32 132.356 104.629 129.072 99.903C127.792 98.059 126.509 96.219 125.262 94.356C117.937 83.423 127.703 74.741 134.985 75.56Z" fill="#5B290E"/>
<path d="M149.587 123.834C150.147 125.569 152.472 126.369 154.784 125.624C157.095 124.879 158.513 122.865 157.955 121.133C157.392 119.398 155.065 118.595 152.755 119.341C150.445 120.086 149.026 122.099 149.587 123.834Z" fill="#E5D7CA"/>
<path d="M11.429 127.622C10.765 128.512 9.66701 128.817 8.98001 128.304C8.29401 127.792 8.275 126.656 8.939 125.766C9.604 124.876 10.701 124.57 11.386 125.084C12.073 125.598 12.092 126.734 11.429 127.622Z" fill="#E5D7CA"/>
<path d="M4.41698 124.904C3.56498 126.046 2.15799 126.438 1.27599 125.78C0.394988 125.122 0.371979 123.663 1.22298 122.523C2.07598 121.38 3.48099 120.988 4.36199 121.647C5.24299 122.305 5.26798 123.765 4.41698 124.904Z" fill="#E5D7CA"/>
<path d="M7.84799 127.341C6.98399 128.499 5.55699 128.898 4.66299 128.231C3.76899 127.561 3.746 126.082 4.609 124.925C5.472 123.768 6.899 123.369 7.793 124.037C8.686 124.704 8.71099 126.185 7.84799 127.341Z" fill="#E5D7CA"/>
<path d="M28.208 75.56C17.833 76.728 6.23799 99.096 3.42099 107.966C2.53299 110.771 -2.09999 120.891 2.85101 124.751C4.90701 126.353 7.41201 127.481 9.94501 127.034C13.986 126.317 22.089 116.126 23.893 113.838C27.46 109.32 30.837 104.629 34.118 99.903C35.401 98.059 36.682 96.219 37.93 94.356C45.255 83.423 35.49 74.741 28.208 75.56Z" fill="#5B290E"/>
<path d="M13.606 123.834C13.045 125.569 10.719 126.369 8.41001 125.624C6.09901 124.879 4.67902 122.865 5.23802 121.133C5.79802 119.398 8.126 118.595 10.438 119.341C12.749 120.086 14.167 122.099 13.606 123.834Z" fill="#E5D7CA"/>
<path d="M25.682 71.588C20.861 84.929 18.114 99.01 18.114 111.805C18.114 153.043 46.545 176.03 81.617 176.03C116.685 176.03 145.115 153.044 145.115 111.805C145.115 99.01 142.369 84.929 137.547 71.588H25.682Z" fill="#723A15"/>
<path d="M127.569 132.093C127.569 160.306 106.985 176.03 81.596 176.03C56.208 176.03 35.623 160.306 35.623 132.093C35.623 103.88 56.208 66.506 81.596 66.506C106.985 66.506 127.569 103.88 127.569 132.093Z" fill="#B36B31"/>
<path d="M68.017 28.908C68.017 28.908 52.576 -5.40696 43.933 0.736045C34.466 7.46704 33.236 52.733 33.236 52.733C33.236 52.733 46.429 43.157 68.017 28.908Z" fill="#723A15"/>
<path d="M59.38 35.6551C59.38 35.6551 47.442 7.86501 44.446 8.34201C35.221 9.81201 34.667 51.705 34.667 51.705C34.667 51.705 42.026 47.1131 59.38 35.6551Z" fill="#B15A51"/>
<path d="M97.977 28.908C97.977 28.908 113.42 -5.40696 122.06 0.736045C131.528 7.46704 132.757 52.733 132.757 52.733C132.757 52.733 119.566 43.157 97.977 28.908Z" fill="#723A15"/>
<path d="M106.612 35.6551C106.612 35.6551 118.55 7.86501 121.549 8.34201C130.773 9.81201 131.326 51.705 131.326 51.705C131.326 51.705 123.968 47.1131 106.612 35.6551Z" fill="#B15A51"/>
<path d="M139.081 63.5L146.754 65.239C144.116 58.945 137.04 56.183 137.04 56.183C140.638 55.703 142.61 52.826 142.61 52.826C130.313 51.865 122.649 42.513 122.649 42.513C111.583 26.805 97.258 15.927 81.616 15.927C65.948 15.927 51.61 26.831 40.538 42.57L40.542 42.513C40.542 42.513 32.878 51.865 20.579 52.826C20.579 52.826 22.554 55.703 26.151 56.183C26.151 56.183 19.075 58.945 16.438 65.239L24.113 63.5C24.113 63.5 23.558 66.894 26.071 70.504C26.034 70.606 25.998 70.712 25.958 70.816C25.958 70.816 36.015 90.39 76.359 93.748H86.43C126.775 90.391 136.83 70.816 136.83 70.816H137.268C137.226 70.702 137.186 70.585 137.142 70.471C139.628 66.873 139.081 63.5 139.081 63.5Z" fill="#E5D7CA"/>
<path d="M65.143 56.487C65.143 56.487 60.541 65.411 60.323 68.596L65.143 66.472C65.143 66.472 65.827 80.114 79.855 86.039H83.283C97.31 80.113 97.995 66.472 97.995 66.472L102.816 68.596C102.596 65.41 97.995 56.487 97.995 56.487L102.816 58.805C102.808 55.813 100.529 51.445 100.529 51.445C100.529 51.445 100.562 51.456 100.614 51.474C95.987 47.24 89.185 45.098 81.597 45.098C74.025 45.098 67.236 47.231 62.609 51.446C62.605 51.456 60.33 55.816 60.323 58.805L65.143 56.487Z" fill="#EFE7DF"/>
<path d="M100.613 51.475C100.561 51.457 100.528 51.446 100.528 51.446C100.528 51.446 102.807 55.814 102.815 58.806L97.994 56.488C97.994 56.488 102.596 65.412 102.815 68.597L97.994 66.473C97.994 66.473 97.309 80.115 83.282 86.04H79.854C65.827 80.114 65.142 66.473 65.142 66.473L60.322 68.597C60.541 65.411 65.142 56.488 65.142 56.488L60.322 58.806C60.329 55.817 62.604 51.456 62.608 51.447C58.715 54.994 56.35 60.014 56.35 66.494C56.35 80.676 67.652 99.393 81.596 99.393C95.535 99.393 106.838 80.675 106.838 66.494C106.839 60.03 104.488 55.021 100.613 51.475Z" fill="#D8C3B0"/>
<path d="M75.518 97.648C72.415 97.648 69.751 94.676 69.181 90.582C69.159 90.415 69.276 90.259 69.442 90.235C69.606 90.214 69.767 90.328 69.79 90.497C70.317 94.284 72.725 97.032 75.518 97.032C78.308 97.032 80.715 94.284 81.245 90.497C81.268 90.33 81.429 90.218 81.592 90.235C81.757 90.258 81.878 90.415 81.854 90.582C81.282 94.676 78.617 97.648 75.518 97.648Z" fill="#4F342F"/>
<path d="M87.675 97.648C84.575 97.648 81.909 94.676 81.339 90.582C81.317 90.415 81.433 90.259 81.6 90.235C81.765 90.214 81.921 90.328 81.949 90.497C82.476 94.284 84.885 97.032 87.676 97.032C90.467 97.032 92.877 94.284 93.403 90.497C93.426 90.33 93.589 90.218 93.749 90.235C93.919 90.258 94.036 90.415 94.013 90.582C93.438 94.676 90.777 97.648 87.675 97.648Z" fill="#4F342F"/>
<path d="M89.54 83.883C89.54 80.51 85.982 80 81.595 80C77.21 80 73.653 80.51 73.653 83.883C73.653 87.254 77.211 91.704 81.595 91.704C85.982 91.704 89.54 87.254 89.54 83.883Z" fill="#181619"/>
<path d="M139.081 63.5L146.754 65.239C144.116 58.945 137.04 56.183 137.04 56.183C140.638 55.703 142.61 52.826 142.61 52.826C130.313 51.865 122.649 42.513 122.649 42.513C111.583 26.805 97.258 15.927 81.616 15.927C65.948 15.927 51.61 26.831 40.538 42.57L40.542 42.513C40.542 42.513 32.878 51.865 20.579 52.826C20.579 52.826 22.554 55.703 26.151 56.183C26.151 56.183 19.075 58.945 16.438 65.239L24.113 63.5C24.113 63.5 23.558 66.894 26.071 70.504C26.034 70.606 25.998 70.712 25.958 70.816C25.958 70.816 31.249 81.106 49.535 88.044C49.529 88.038 38.034 76.762 38.513 69.065L42.956 68.084L38.497 63.526C38.497 63.526 51.795 47.059 79.946 45.098H83.723C111.876 47.059 124.914 63.526 124.914 63.526L120.457 68.084L124.9 69.065C125.326 75.921 116.255 85.613 114.266 87.652C131.734 80.724 136.829 70.816 136.829 70.816H137.267C137.225 70.702 137.185 70.585 137.141 70.471C139.628 66.873 139.081 63.5 139.081 63.5Z" fill="#985626"/>
<path d="M69.972 42.854C69.972 45.404 67.906 47.471 65.355 47.471C62.804 47.471 60.738 45.404 60.738 42.854C60.738 40.303 62.804 38.235 65.355 38.235C67.906 38.234 69.972 40.303 69.972 42.854Z" fill="#4E292C"/>
<path d="M65.026 41.414C65.026 42.208 64.381 42.853 63.587 42.853C62.792 42.853 62.147 42.207 62.147 41.414C62.147 40.619 62.792 39.974 63.587 39.974C64.382 39.975 65.026 40.619 65.026 41.414Z" fill="white"/>
<path d="M63.405 44.44C63.405 44.79 63.125 45.07 62.777 45.07C62.428 45.07 62.147 44.79 62.147 44.44C62.147 44.094 62.428 43.81 62.777 43.81C63.125 43.81 63.405 44.095 63.405 44.44Z" fill="white"/>
<path d="M102.454 42.854C102.454 45.404 100.386 47.471 97.837 47.471C95.287 47.471 93.218 45.404 93.218 42.854C93.218 40.303 95.287 38.235 97.837 38.235C100.386 38.234 102.454 40.303 102.454 42.854Z" fill="#4E292C"/>
<path d="M97.508 41.414C97.508 42.208 96.862 42.853 96.068 42.853C95.274 42.853 94.629 42.207 94.629 41.414C94.629 40.619 95.275 39.974 96.068 39.974C96.862 39.975 97.508 40.619 97.508 41.414Z" fill="white"/>
<path d="M95.259 45.07C95.6069 45.07 95.889 44.7879 95.889 44.44C95.889 44.0921 95.6069 43.81 95.259 43.81C94.911 43.81 94.629 44.0921 94.629 44.44C94.629 44.7879 94.911 45.07 95.259 45.07Z" fill="white"/>
</svg>
