<svg width="170" height="200" viewBox="0 0 170 200" fill="none" xmlns="http://www.w3.org/2000/svg">
<path d="M73.787 15.711C73.787 15.711 46.308 -6.76999 41.598 2.05201C36.433 11.726 41.928 38.807 41.928 38.807C41.928 38.807 56.804 31.169 73.787 15.711Z" fill="#AD8D82"/>
<path d="M69.205 18.903C69.205 18.903 48.715 2.14199 45.2 8.71899C41.35 15.929 45.446 36.123 45.446 36.123C45.446 36.123 56.54 30.435 69.205 18.903Z" fill="#F2A5AE"/>
<path d="M96.187 15.711C96.187 15.711 123.664 -6.76999 128.375 2.05201C133.538 11.726 128.045 38.807 128.045 38.807C128.045 38.807 113.17 31.169 96.187 15.711Z" fill="#AD8D82"/>
<path d="M100.768 18.903C100.768 18.903 121.26 2.14199 124.77 8.71899C128.621 15.929 124.526 36.123 124.526 36.123C124.526 36.123 113.435 30.435 100.768 18.903Z" fill="#F2A5AE"/>
<path d="M158.002 125.625C158.692 126.55 159.833 126.868 160.548 126.335C161.263 125.803 161.281 124.618 160.591 123.693C159.9 122.764 158.761 122.45 158.045 122.983C157.33 123.516 157.312 124.7 158.002 125.625Z" fill="#FDF1E3"/>
<path d="M165.296 122.797C166.182 123.986 167.646 124.391 168.562 123.707C169.482 123.024 169.505 121.503 168.619 120.318C167.733 119.13 166.269 118.719 165.353 119.408C164.435 120.091 164.41 121.607 165.296 122.797Z" fill="#FDF1E3"/>
<path d="M161.726 125.333C162.627 126.54 164.113 126.95 165.041 126.258C165.972 125.562 165.995 124.022 165.098 122.815C164.199 121.613 162.714 121.199 161.783 121.895C160.855 122.587 160.828 124.131 161.726 125.333Z" fill="#FDF1E3"/>
<path d="M140.54 71.453C151.337 72.665 163.401 95.943 166.332 105.175C167.259 108.09 172.077 118.62 166.925 122.637C164.788 124.304 162.181 125.48 159.546 125.015C155.34 124.268 146.909 113.661 145.03 111.283C141.319 106.579 137.805 101.701 134.386 96.782C133.054 94.864 131.722 92.952 130.424 91.011C122.8 79.629 132.964 70.597 140.54 71.453Z" fill="#9C766B"/>
<path d="M155.733 121.681C156.317 123.489 158.737 124.323 161.141 123.548C163.546 122.77 165.022 120.674 164.439 118.87C163.858 117.066 161.436 116.228 159.031 117.008C156.626 117.782 155.151 119.877 155.733 121.681Z" fill="#FDF1E3"/>
<path d="M11.972 125.625C11.282 126.55 10.141 126.868 9.42497 126.335C8.70997 125.803 8.691 124.618 9.382 123.693C10.072 122.764 11.213 122.45 11.929 122.983C12.643 123.516 12.661 124.7 11.972 125.625Z" fill="#FDF1E3"/>
<path d="M4.675 122.797C3.792 123.986 2.32701 124.391 1.40901 123.707C0.491008 123.024 0.469015 121.503 1.35401 120.318C2.24101 119.13 3.70201 118.719 4.62001 119.408C5.53601 120.091 5.562 121.607 4.675 122.797Z" fill="#FDF1E3"/>
<path d="M8.24499 125.333C7.34699 126.54 5.86099 126.95 4.92999 126.258C3.99999 125.562 3.975 124.022 4.872 122.815C5.771 121.613 7.256 121.199 8.187 121.895C9.118 122.587 9.14599 124.131 8.24499 125.333Z" fill="#FDF1E3"/>
<path d="M29.431 71.453C18.635 72.665 6.57003 95.943 3.64003 105.175C2.71403 108.09 -2.10599 118.62 3.04701 122.637C5.18501 124.304 7.79201 125.48 10.427 125.015C14.634 124.268 23.062 113.661 24.941 111.283C28.655 106.579 32.167 101.701 35.585 96.782C36.918 94.864 38.25 92.952 39.55 91.011C47.171 79.629 37.01 70.597 29.431 71.453Z" fill="#9C766B"/>
<path d="M14.237 121.681C13.657 123.489 11.233 124.323 8.82895 123.548C6.42695 122.77 4.94798 120.674 5.53098 118.87C6.11398 117.066 8.53499 116.228 10.942 117.008C13.347 117.782 14.82 119.877 14.237 121.681Z" fill="#FDF1E3"/>
<path d="M144.782 57.963L152.768 59.776C150.024 53.227 142.66 50.353 142.66 50.353C146.403 49.852 148.458 46.855 148.458 46.855C135.662 45.858 127.685 36.125 127.685 36.125C116.169 19.783 101.267 8.461 84.988 8.461C68.687 8.461 53.769 19.811 42.246 36.185L42.25 36.125C42.25 36.125 34.275 45.858 21.477 46.855C21.477 46.855 23.531 49.852 27.275 50.353C27.275 50.353 19.913 53.227 17.166 59.776L25.152 57.963C25.152 57.963 24.579 61.497 27.191 65.25C21.917 79.465 18.911 94.554 18.911 108.227C18.911 151.14 48.494 175.06 84.988 175.06C121.48 175.06 151.064 151.14 151.064 108.227C151.064 94.54 148.05 79.443 142.77 65.214C145.352 61.475 144.782 57.963 144.782 57.963Z" fill="#AD8D82"/>
<path d="M93.499 184.906C84.143 181.208 77.61 175.888 74.038 169.043C69.058 159.501 71.851 150.597 71.972 150.224C72.515 148.552 74.304 147.642 75.972 148.184C77.629 148.726 78.544 150.502 78.014 152.164C77.968 152.31 75.955 159.1 79.718 166.205C83.109 172.613 90.076 177.455 100.422 180.598C116.071 185.348 126.535 180.157 132.561 174.964C141.148 167.559 144.582 157.019 144.16 154.15C143.902 152.42 145.099 150.807 146.836 150.552C148.57 150.292 150.181 151.49 150.438 153.226C150.874 156.172 149.79 160.754 147.538 165.491C145.723 169.312 142.368 174.887 136.705 179.769C129.472 186.004 116.988 192.257 98.579 186.669C96.801 186.132 95.108 185.539 93.499 184.906Z" fill="#9C766B"/>
<path d="M89.036 140.65H125.194L120.151 187.498C122.506 190.03 123.946 192.795 123.946 194.197C123.946 197.172 117.478 199.581 109.501 199.581C101.524 199.581 95.057 197.172 95.057 194.197C95.057 194.152 95.064 194.097 95.068 194.047L89.036 140.65Z" fill="#AD8D82"/>
<path d="M121.211 197.723C121.386 197.723 121.543 197.595 121.577 197.417C122.133 194.462 119.646 192.016 119.539 191.916C119.392 191.774 119.157 191.774 119.011 191.925C118.868 192.075 118.872 192.312 119.021 192.453C119.043 192.475 121.323 194.722 120.842 197.276C120.804 197.481 120.938 197.676 121.14 197.714C121.163 197.718 121.188 197.723 121.211 197.723Z" fill="#7F5A50"/>
<path d="M116.93 198.848C117.105 198.848 117.263 198.725 117.296 198.542C117.852 195.587 115.365 193.146 115.258 193.041C115.11 192.899 114.873 192.899 114.73 193.05C114.587 193.2 114.591 193.437 114.74 193.578C114.763 193.6 117.04 195.847 116.561 198.406C116.523 198.606 116.655 198.801 116.859 198.842C116.882 198.848 116.904 198.848 116.93 198.848Z" fill="#7F5A50"/>
<path d="M111.551 200C111.726 200 111.886 199.877 111.917 199.694C112.411 197.062 110.202 194.889 110.106 194.798C109.959 194.656 109.724 194.656 109.579 194.807C109.434 194.957 109.439 195.195 109.588 195.335C109.609 195.357 111.603 197.325 111.182 199.557C111.146 199.758 111.278 199.954 111.48 199.995C111.505 200 111.528 200 111.551 200Z" fill="#7F5A50"/>
<path d="M80.938 140.65H44.778L49.822 187.498C47.465 190.03 46.028 192.795 46.028 194.197C46.028 197.172 52.496 199.581 60.472 199.581C68.45 199.581 74.915 197.172 74.915 194.197C74.915 194.152 74.907 194.097 74.905 194.047L80.938 140.65Z" fill="#AD8D82"/>
<path d="M48.763 197.723C48.587 197.723 48.428 197.595 48.396 197.417C47.841 194.462 50.326 192.016 50.432 191.916C50.582 191.774 50.8169 191.774 50.9619 191.925C51.1039 192.075 51.101 192.312 50.953 192.453C50.929 192.475 48.651 194.722 49.132 197.276C49.168 197.481 49.036 197.676 48.833 197.714C48.808 197.718 48.785 197.723 48.763 197.723Z" fill="#7F5A50"/>
<path d="M53.044 198.848C52.868 198.848 52.712 198.725 52.677 198.542C52.122 195.587 54.607 193.146 54.713 193.041C54.863 192.899 55.098 192.899 55.243 193.05C55.388 193.2 55.382 193.437 55.234 193.578C55.212 193.6 52.932 195.847 53.413 198.406C53.451 198.606 53.317 198.801 53.114 198.842C53.092 198.848 53.066 198.848 53.044 198.848Z" fill="#7F5A50"/>
<path d="M58.421 200C58.245 200 58.088 199.877 58.054 199.694C57.56 197.062 59.769 194.889 59.864 194.798C60.014 194.656 60.249 194.656 60.394 194.807C60.538 194.957 60.534 195.195 60.385 195.335C60.364 195.357 58.3691 197.325 58.7881 199.557C58.8271 199.758 58.692 199.954 58.49 199.995C58.468 200 58.445 200 58.421 200Z" fill="#7F5A50"/>
<path d="M132.822 138.864C132.822 162.106 111.405 175.059 84.987 175.059C58.568 175.059 37.151 162.106 37.151 138.864C37.151 115.623 58.568 84.835 84.987 84.835C111.405 84.835 132.822 115.623 132.822 138.864Z" fill="#EEE2D4"/>
<path d="M68.087 38.287C70.7407 38.287 72.892 36.1357 72.892 33.482C72.892 30.8283 70.7407 28.677 68.087 28.677C65.4332 28.677 63.282 30.8283 63.282 33.482C63.282 36.1357 65.4332 38.287 68.087 38.287Z" fill="#431827"/>
<path d="M67.745 31.984C67.745 32.813 67.073 33.482 66.247 33.482C65.421 33.482 64.751 32.813 64.751 31.984C64.751 31.16 65.421 30.485 66.247 30.485C67.073 30.485 67.745 31.16 67.745 31.984Z" fill="white"/>
<path d="M66.06 35.136C66.06 35.495 65.766 35.792 65.405 35.792C65.042 35.792 64.751 35.495 64.751 35.136C64.751 34.777 65.042 34.48 65.405 34.48C65.767 34.479 66.06 34.776 66.06 35.136Z" fill="white"/>
<path d="M101.886 38.287C104.54 38.287 106.691 36.1357 106.691 33.482C106.691 30.8283 104.54 28.677 101.886 28.677C99.2323 28.677 97.081 30.8283 97.081 33.482C97.081 36.1357 99.2323 38.287 101.886 38.287Z" fill="#431827"/>
<path d="M101.544 31.984C101.544 32.813 100.872 33.482 100.046 33.482C99.22 33.482 98.55 32.813 98.55 31.984C98.55 31.16 99.22 30.485 100.046 30.485C100.872 30.485 101.544 31.16 101.544 31.984Z" fill="white"/>
<path d="M99.856 35.136C99.856 35.495 99.565 35.792 99.204 35.792C98.841 35.792 98.55 35.495 98.55 35.136C98.55 34.777 98.841 34.48 99.204 34.48C99.565 34.479 99.856 34.776 99.856 35.136Z" fill="white"/>
<path d="M107.647 56.06C107.647 71.185 97.34 73.476 84.626 73.476C71.91 73.476 61.604 71.185 61.604 56.06C61.604 40.934 71.911 33.483 84.626 33.483C97.341 33.482 107.647 40.934 107.647 56.06Z" fill="#EEE2D4"/>
<path d="M75.83 72.692C71.341 72.692 67.486 68.392 66.661 62.467C66.628 62.225 66.796 62.002 67.04 61.97C67.274 61.934 67.505 62.102 67.54 62.348C68.304 67.827 71.79 71.803 75.83 71.803C79.867 71.803 83.354 67.827 84.119 62.348C84.155 62.102 84.381 61.939 84.622 61.97C84.864 62.002 85.03 62.225 84.998 62.467C84.174 68.393 80.318 72.692 75.83 72.692Z" fill="#7F5A50"/>
<path d="M93.424 72.692C88.933 72.692 85.08 68.392 84.253 62.467C84.222 62.225 84.388 62.002 84.632 61.97C84.87 61.934 85.101 62.102 85.132 62.348C85.898 67.827 89.384 71.803 93.424 71.803C97.464 71.803 100.948 67.827 101.713 62.348C101.745 62.102 101.98 61.939 102.214 61.97C102.456 62.002 102.626 62.225 102.592 62.467C101.766 68.393 97.91 72.692 93.424 72.692Z" fill="#7F5A50"/>
<path d="M94.749 58.186C94.749 56.036 90.218 55.708 84.624 55.708C79.036 55.708 74.502 56.036 74.502 58.186C74.502 60.335 79.036 63.168 84.624 63.168C90.218 63.169 94.749 60.336 94.749 58.186Z" fill="#F2A5AE"/>
<path d="M78.342 72.191C78.342 72.191 77.465 77.975 82.552 79.505C89.105 81.468 91.632 76.576 91.352 72.191C91.352 72.191 86.044 70.62 84.625 63.169C84.625 63.169 84.143 68.716 78.342 72.191Z" fill="#E17585"/>
<path d="M84.624 76.04H84.622C84.415 76.04 84.249 75.871 84.251 75.662L84.347 64.681C84.352 64.476 84.518 64.312 84.723 64.312C84.723 64.312 84.725 64.312 84.728 64.312C84.933 64.312 85.099 64.481 85.096 64.691L85.001 75.671C84.998 75.876 84.829 76.04 84.624 76.04Z" fill="#C15368"/>
<path d="M93.921 65.838C93.752 65.838 93.593 65.737 93.526 65.573C93.442 65.354 93.547 65.109 93.762 65.017C93.838 64.99 101.252 62.052 108.252 61.77C108.494 61.779 108.686 61.943 108.694 62.175C108.703 62.412 108.521 62.608 108.289 62.617C101.43 62.894 94.151 65.777 94.078 65.809C94.027 65.829 93.973 65.838 93.921 65.838Z" fill="white"/>
<path d="M110.382 67.997C110.351 67.997 110.322 67.992 110.287 67.987C102.792 66.252 94.055 67.213 93.968 67.222C93.736 67.244 93.527 67.085 93.499 66.848C93.474 66.616 93.64 66.407 93.875 66.379C93.964 66.369 102.838 65.395 110.477 67.157C110.708 67.208 110.849 67.439 110.796 67.668C110.751 67.864 110.576 67.997 110.382 67.997Z" fill="white"/>
<path d="M107.19 72.191C107.13 72.191 107.071 72.177 107.014 72.15C101.121 69.481 93.767 68.83 93.694 68.821C93.46 68.802 93.287 68.597 93.307 68.361C93.328 68.129 93.533 67.965 93.767 67.973C93.84 67.983 101.341 68.647 107.365 71.38C107.577 71.476 107.673 71.726 107.577 71.94C107.504 72.101 107.352 72.191 107.19 72.191Z" fill="white"/>
<path d="M76.0511 65.838C76.2201 65.838 76.379 65.737 76.444 65.573C76.531 65.354 76.426 65.109 76.208 65.017C76.135 64.99 68.72 62.052 61.718 61.77C61.477 61.779 61.288 61.943 61.279 62.175C61.269 62.412 61.45 62.608 61.684 62.617C68.5431 62.894 75.822 65.777 75.894 65.809C75.944 65.829 75.9991 65.838 76.0511 65.838Z" fill="white"/>
<path d="M59.589 67.997C59.622 67.997 59.652 67.992 59.685 67.987C67.181 66.252 75.917 67.213 76.003 67.222C76.235 67.244 76.444 67.085 76.472 66.848C76.499 66.616 76.333 66.407 76.099 66.379C76.01 66.369 67.133 65.395 59.496 67.157C59.265 67.208 59.125 67.439 59.178 67.668C59.222 67.864 59.397 67.997 59.589 67.997Z" fill="white"/>
<path d="M62.784 72.191C62.843 72.191 62.901 72.177 62.956 72.15C68.851 69.481 76.203 68.83 76.278 68.821C76.51 68.802 76.683 68.597 76.663 68.361C76.642 68.129 76.44 67.965 76.206 67.973C76.13 67.983 68.632 68.647 62.608 71.38C62.393 71.476 62.297 71.726 62.396 71.94C62.467 72.101 62.622 72.191 62.784 72.191Z" fill="white"/>
<path d="M39.388 72.897C39.355 72.897 39.325 72.897 39.294 72.887C32.469 71.166 27.948 68.082 25.86 63.724C25.771 63.537 25.85 63.309 26.036 63.223C26.222 63.132 26.448 63.213 26.536 63.401C29.013 68.57 34.942 71.02 39.477 72.164C39.678 72.214 39.799 72.414 39.749 72.615C39.706 72.783 39.554 72.897 39.388 72.897Z" fill="#7F5A50"/>
<path d="M130.554 72.897C130.586 72.897 130.617 72.897 130.648 72.887C137.473 71.166 141.994 68.082 144.082 63.724C144.171 63.537 144.092 63.309 143.906 63.223C143.72 63.132 143.494 63.213 143.406 63.401C140.93 68.57 135.003 71.02 130.465 72.164C130.266 72.214 130.143 72.414 130.194 72.615C130.235 72.783 130.388 72.897 130.554 72.897Z" fill="#7F5A50"/>
</svg>
