<svg width="157" height="200" viewBox="0 0 157 200" fill="none" xmlns="http://www.w3.org/2000/svg">
<path d="M148.372 182.078C148.34 179.865 148.097 177.676 148.56 175.49C148.627 175.159 150.953 179.04 151.571 180.966C153.374 180.141 155.085 179.18 156.639 178.047C156.639 178.047 151.894 129.075 114.667 134.268L111.883 140.517C111.883 140.517 123.931 148.41 122.579 165.042C121.374 179.846 118.156 185.177 118.156 185.177C118.156 185.177 120.855 185.464 124.939 185.508C125.326 182.972 125.836 180.459 126.363 177.944C126.438 177.589 127.682 182.968 127.678 185.497C130.135 185.453 132.914 185.302 135.814 184.975C136.325 180.07 135.95 175.101 136.851 170.232C136.903 169.945 141.085 182.012 141.353 184.126C143.738 183.659 146.115 183.029 148.404 182.228C148.384 182.183 148.372 182.135 148.372 182.078Z" fill="#050608"/>
<path d="M138.06 90.438C138.06 90.438 133.769 84.149 128.039 83.567C121.774 82.928 116.14 89.876 122.435 99.311C126.372 105.209 139.3 116.709 142.299 128.949L147.559 125.376L153.493 125.858C153.493 125.858 148.552 102.193 138.06 90.438Z" fill="#6A2C1F"/>
<path d="M140.521 123.903L152.105 120.294C153.035 123.664 153.493 125.858 153.493 125.858L142.3 128.949C141.88 127.245 141.27 125.563 140.521 123.903Z" fill="#24130C"/>
<path d="M15.969 90.438C15.969 90.438 20.2561 84.149 25.9871 83.567C32.2561 82.928 37.888 89.876 31.593 99.311C27.657 105.209 14.729 116.709 11.73 128.949L6.46594 125.376L0.535034 125.858C0.535034 125.858 5.47599 102.193 15.969 90.438Z" fill="#6A2C1F"/>
<path d="M13.5081 123.903L1.92395 120.294C0.99395 123.664 0.535034 125.858 0.535034 125.858L11.729 128.949C12.145 127.245 12.7591 125.563 13.5081 123.903Z" fill="#24130C"/>
<path d="M67.104 194.046L72.806 143.388H39.049L51.343 194.046H67.104Z" fill="#6A2C1F"/>
<path d="M67.104 194.046H51.343L48.739 200H69.1851L67.104 194.046Z" fill="#24130C"/>
<path d="M86.923 194.046L81.2209 143.388H114.981L102.683 194.046H86.923Z" fill="#6A2C1F"/>
<path d="M86.923 194.046H102.683L105.287 200H84.842L86.923 194.046Z" fill="#24130C"/>
<path d="M63.965 23.549C64.48 31.5 47.8539 39.133 41.6009 39.536C35.3479 39.938 41.905 9.96601 48.158 9.55901C54.41 9.15601 63.454 15.597 63.965 23.549Z" fill="#8C3F25"/>
<path d="M54.709 29.299C55.044 34.531 48.284 34.922 44.169 35.19C40.054 35.453 44.3681 15.721 48.4831 15.454C52.6041 15.185 54.374 24.059 54.709 29.299Z" fill="#6A2C1F"/>
<path d="M90.0621 23.549C89.5511 31.5 106.173 39.133 112.426 39.536C118.679 39.938 112.122 9.96601 105.869 9.55901C99.6161 9.15601 90.5721 15.597 90.0621 23.549Z" fill="#8C3F25"/>
<path d="M99.317 29.299C98.982 34.531 105.742 34.922 109.857 35.19C113.972 35.453 109.658 15.721 105.542 15.454C101.423 15.185 99.656 24.059 99.317 29.299Z" fill="#6A2C1F"/>
<path d="M138.706 110.377C138.706 150.578 111.086 172.99 77.0129 172.99C42.9449 172.99 15.322 150.578 15.322 110.377C15.322 70.171 42.9439 16.904 77.0129 16.904C111.086 16.904 138.706 70.171 138.706 110.377Z" fill="#8C3F25"/>
<path d="M121.674 139.077C121.674 160.85 101.678 172.99 77.0129 172.99C52.3479 172.99 32.351 160.85 32.351 139.077C32.351 117.304 52.3479 88.459 77.0129 88.459C101.678 88.459 121.674 117.304 121.674 139.077Z" fill="#BA624A"/>
<path d="M68.575 36.899C68.575 39.384 66.569 41.398 64.089 41.398C61.613 41.398 59.6071 39.384 59.6071 36.899C59.6071 34.411 61.613 32.397 64.089 32.397C66.569 32.398 68.575 34.411 68.575 36.899Z" fill="#010100"/>
<path d="M63.77 35.492C63.77 36.269 63.144 36.899 62.374 36.899C61.6 36.899 60.974 36.269 60.974 35.492C60.974 34.719 61.6 34.093 62.374 34.093C63.144 34.093 63.77 34.719 63.77 35.492Z" fill="white"/>
<path d="M62.198 38.447C62.198 38.786 61.923 39.061 61.584 39.061C61.249 39.061 60.974 38.786 60.974 38.447C60.974 38.108 61.249 37.833 61.584 37.833C61.923 37.833 62.198 38.108 62.198 38.447Z" fill="white"/>
<path d="M94.42 36.899C94.42 39.384 92.414 41.398 89.938 41.398C87.458 41.398 85.452 39.384 85.452 36.899C85.452 34.411 87.458 32.397 89.938 32.397C92.414 32.398 94.42 34.411 94.42 36.899Z" fill="#010100"/>
<path d="M89.619 35.492C89.619 36.269 88.988 36.899 88.219 36.899C87.446 36.899 86.8199 36.269 86.8199 35.492C86.8199 34.719 87.446 34.093 88.219 34.093C88.988 34.093 89.619 34.719 89.619 35.492Z" fill="white"/>
<path d="M88.0439 38.447C88.0439 38.786 87.769 39.061 87.434 39.061C87.095 39.061 86.8199 38.786 86.8199 38.447C86.8199 38.108 87.095 37.833 87.434 37.833C87.769 37.833 88.0439 38.108 88.0439 38.447Z" fill="white"/>
<path d="M101.017 59.164H53.01C52.552 60.599 52.1139 62.087 51.6949 63.639L47.7469 77.644C47.7469 92.515 60.672 104.598 76.731 104.902V104.914C76.827 104.914 76.9229 104.91 77.0129 104.91C77.1089 104.91 77.204 104.914 77.296 104.914V104.902C93.359 104.598 106.28 92.515 106.28 77.644L102.336 63.639C101.917 62.087 101.475 60.6 101.017 59.164Z" fill="#6A2C1F"/>
<path d="M98.073 59.164H55.953C55.551 60.424 55.163 61.728 54.797 63.088L51.335 75.375C51.335 88.427 62.673 99.027 76.766 99.29V99.302C76.85 99.302 76.9299 99.298 77.0129 99.298C77.0969 99.298 77.181 99.302 77.261 99.302V99.29C91.354 99.027 102.692 88.427 102.692 75.375L99.23 63.088C98.862 61.729 98.476 60.424 98.073 59.164Z" fill="#E17585"/>
<path d="M105.634 75.949L101.779 65.397C96.3191 49.86 87.4619 41.645 77.2889 41.337V41.321C77.2009 41.321 77.105 41.325 77.014 41.329C76.923 41.325 76.831 41.321 76.74 41.321V41.337C66.566 41.645 57.71 49.86 52.254 65.397L48.395 75.949C48.395 87.151 61.032 96.251 76.741 96.478V96.49C76.833 96.49 76.925 96.486 77.015 96.486C77.107 96.486 77.203 96.49 77.29 96.49V96.478C92.996 96.251 105.634 87.151 105.634 75.949Z" fill="#24130C"/>
<path d="M47.176 73.277C47.176 83.928 60.352 92.578 76.726 92.794V92.806C76.822 92.806 76.9169 92.802 77.0129 92.802C77.1089 92.802 77.2041 92.806 77.3051 92.806V92.794C93.6751 92.578 106.851 83.929 106.851 73.277C72.966 56.117 47.176 73.277 47.176 73.277Z" fill="#6A2C1F"/>
<path d="M77.3051 40.373V40.361C77.2041 40.361 77.1089 40.365 77.0129 40.365C76.9169 40.365 76.822 40.361 76.726 40.361V40.373C66.122 40.668 56.887 48.477 51.2 63.248L47.177 73.277C47.177 73.277 72.9671 56.117 106.852 73.277L102.829 63.248C97.14 48.477 87.9041 40.668 77.3051 40.373Z" fill="#BA624A"/>
<path d="M65.6591 80.767C67.4981 83.502 68.036 86.163 66.86 86.713C65.679 87.263 63.2351 85.492 61.3961 82.757C59.5541 80.021 59.0191 77.357 60.1961 76.807C61.3731 76.256 63.8211 78.031 65.6591 80.767Z" fill="#24130C"/>
<path d="M88.3659 80.767C86.5279 83.502 85.99 86.163 87.166 86.713C88.347 87.263 90.791 85.492 92.63 82.757C94.472 80.021 95.0069 77.357 93.8299 76.807C92.6529 76.256 90.2049 78.031 88.3659 80.767Z" fill="#24130C"/>
<path d="M88.55 3.37402C88.55 3.37402 86.504 8.17899 86.285 9.35199C86.312 8.07599 86.2679 1.79498 86.2679 1.79498L82.6429 9.54303V0.390991L76.913 0L75.781 9.17999L74.298 0.877014L67.483 6.85199L75.064 34.093L79.801 17.248C79.801 17.248 85.627 17.606 88.858 19.054L92.506 7.93201L88.55 3.37402Z" fill="#050608"/>
</svg>
