<svg width="188" height="200" viewBox="0 0 188 200" fill="none" xmlns="http://www.w3.org/2000/svg">
<path d="M72.7469 99.418C72.7469 99.418 75.39 117.792 95.125 128.231C114.858 138.665 150.442 143.951 174.866 114.36C199.294 84.766 187.889 40.65 155.177 40.341C111.662 39.928 114.099 94.855 143.472 96.976C143.472 96.976 118.833 136.095 72.7469 99.418Z" fill="#6F2E15"/>
<path d="M147.228 97.509C145.935 97.509 144.665 97.415 143.434 97.234C143.291 97.215 143.193 97.08 143.214 96.939C143.236 96.794 143.372 96.701 143.511 96.717C154.142 98.294 167.812 92.896 171.349 81.42C173.285 75.132 171.401 67.666 166.544 62.398C166.446 62.291 166.452 62.127 166.558 62.029C166.665 61.932 166.829 61.938 166.927 62.046C171.906 67.445 173.837 75.112 171.845 81.574C168.638 91.979 157.313 97.509 147.228 97.509Z" fill="#1D1D1B"/>
<path d="M77.845 14.864C83.972 26.523 82.4949 39.361 74.5439 43.545C66.5919 47.723 55.179 41.659 49.05 30C42.921 18.34 44.4 5.50003 52.349 1.32203C60.301 -2.85797 71.714 3.20502 77.845 14.864Z" fill="#8D2E15"/>
<path d="M64.8271 19.152C68.6321 26.392 68.555 33.925 64.653 35.975C60.753 38.025 54.5031 33.818 50.6981 26.581C46.8931 19.336 46.9691 11.806 50.8701 9.75404C54.7721 7.70304 61.0201 11.911 64.8271 19.152Z" fill="#F58A84"/>
<path d="M95.255 14.864C89.126 26.523 90.6029 39.361 98.5539 43.545C106.507 47.723 117.921 41.659 124.05 30C130.178 18.34 128.7 5.50003 120.75 1.32203C112.798 -2.85797 101.384 3.20502 95.255 14.864Z" fill="#8D2E15"/>
<path d="M108.272 19.152C104.466 26.392 104.543 33.925 108.445 35.975C112.347 38.025 118.594 33.818 122.401 26.581C126.206 19.336 126.13 11.806 122.227 9.75404C118.327 7.70304 112.08 11.911 108.272 19.152Z" fill="#F58A84"/>
<path d="M78.679 133.947L39.005 133.089L53.828 181.772C32.823 185.781 33.591 193.375 33.591 194.81C33.591 197.86 41.436 199.696 49.616 199.696C57.796 199.696 72.365 197.86 72.365 194.81C72.365 194.763 78.679 133.947 78.679 133.947Z" fill="#8D2E15"/>
<path d="M36.978 197.833C36.797 197.833 36.636 197.705 36.602 197.52C36.032 194.487 38.5819 191.984 38.6899 191.88C38.8429 191.732 39.084 191.735 39.232 191.887C39.38 192.041 39.377 192.283 39.224 192.43C39.201 192.453 36.8639 194.759 37.3559 197.379C37.3939 197.587 37.259 197.788 37.05 197.825C37.026 197.83 37.001 197.833 36.978 197.833Z" fill="#1D1D1B"/>
<path d="M42.2729 199.065C42.0919 199.065 41.93 198.934 41.897 198.75C41.327 195.72 43.876 193.214 43.985 193.109C44.139 192.965 44.3799 192.965 44.5279 193.12C44.6739 193.27 44.6719 193.516 44.5179 193.663C44.4969 193.684 42.159 195.988 42.651 198.609C42.69 198.817 42.553 199.018 42.345 199.058C42.321 199.06 42.2979 199.065 42.2729 199.065Z" fill="#1D1D1B"/>
<path d="M47.5141 200C47.3331 200 47.171 199.873 47.138 199.688C46.63 196.987 48.8961 194.762 48.9931 194.668C49.1451 194.521 49.3871 194.524 49.5351 194.678C49.6821 194.829 49.679 195.071 49.526 195.218C49.507 195.239 47.461 197.255 47.891 199.543C47.93 199.751 47.793 199.952 47.584 199.993C47.562 199.997 47.5371 200 47.5141 200Z" fill="#1D1D1B"/>
<path d="M94.4189 133.947L134.093 133.089L119.271 181.772C140.276 185.781 139.508 193.375 139.508 194.81C139.508 197.86 131.663 199.696 123.484 199.696C115.302 199.696 100.734 197.86 100.734 194.81C100.733 194.763 94.4189 133.947 94.4189 133.947Z" fill="#8D2E15"/>
<path d="M136.122 197.833C136.303 197.833 136.464 197.705 136.498 197.52C137.068 194.487 134.519 191.984 134.409 191.88C134.257 191.732 134.014 191.735 133.866 191.887C133.72 192.041 133.723 192.283 133.876 192.43C133.899 192.453 136.235 194.759 135.744 197.379C135.704 197.587 135.841 197.788 136.05 197.825C136.075 197.83 136.099 197.833 136.122 197.833Z" fill="#1D1D1B"/>
<path d="M130.825 199.065C131.007 199.065 131.167 198.934 131.202 198.75C131.772 195.72 129.222 193.214 129.114 193.109C128.96 192.965 128.719 192.965 128.571 193.12C128.425 193.27 128.427 193.516 128.579 193.663C128.602 193.684 130.94 195.988 130.448 198.609C130.409 198.817 130.544 199.018 130.754 199.058C130.776 199.06 130.802 199.065 130.825 199.065Z" fill="#1D1D1B"/>
<path d="M125.585 200C125.767 200 125.927 199.873 125.962 199.688C126.471 196.987 124.202 194.762 124.107 194.668C123.955 194.521 123.713 194.524 123.564 194.678C123.418 194.829 123.42 195.071 123.574 195.218C123.593 195.239 125.639 197.255 125.209 199.543C125.17 199.751 125.307 199.952 125.515 199.993C125.537 199.997 125.562 200 125.585 200Z" fill="#1D1D1B"/>
<path d="M11.676 128.002C10.968 128.951 9.79795 129.28 9.06395 128.731C8.33195 128.184 8.312 126.969 9.02 126.023C9.728 125.07 10.898 124.745 11.631 125.294C12.362 125.841 12.384 127.056 11.676 128.002Z" fill="#F58A84"/>
<path d="M4.19403 125.102C3.28603 126.321 1.78405 126.737 0.844054 126.036C-0.0969464 125.334 -0.12193 123.777 0.78607 122.559C1.69507 121.341 3.19505 120.925 4.13605 121.626C5.07705 122.328 5.10303 123.885 4.19403 125.102Z" fill="#F58A84"/>
<path d="M7.85398 127.703C6.93198 128.938 5.41003 129.364 4.45603 128.649C3.50303 127.938 3.47693 126.357 4.39793 125.123C5.31993 123.889 6.84098 123.466 7.79698 124.177C8.74998 124.889 8.77598 126.469 7.85398 127.703Z" fill="#F58A84"/>
<path d="M29.581 72.448C18.51 73.692 6.13793 97.562 3.13193 107.031C2.18293 110.02 -2.76101 120.818 2.52499 124.938C4.71599 126.646 7.38991 127.854 10.0909 127.374C14.4049 126.609 23.0489 115.734 24.9759 113.296C28.7829 108.474 32.386 103.468 35.89 98.425C37.256 96.459 38.6229 94.496 39.9549 92.506C47.7719 80.836 37.351 71.572 29.581 72.448Z" fill="#7F2E15"/>
<path d="M14.001 123.959C13.402 125.811 10.9199 126.666 8.45493 125.871C5.98893 125.072 4.47502 122.929 5.07102 121.076C5.67002 119.227 8.15299 118.369 10.619 119.164C13.085 119.963 14.599 122.106 14.001 123.959Z" fill="#F58A84"/>
<path d="M161.424 128.002C162.134 128.951 163.303 129.28 164.036 128.731C164.768 128.184 164.789 126.969 164.081 126.023C163.372 125.07 162.202 124.745 161.469 125.294C160.737 125.841 160.716 127.056 161.424 128.002Z" fill="#F58A84"/>
<path d="M168.905 125.102C169.815 126.321 171.315 126.737 172.255 126.036C173.196 125.334 173.221 123.777 172.312 122.559C171.404 121.341 169.906 120.925 168.963 121.626C168.023 122.328 167.997 123.885 168.905 125.102Z" fill="#F58A84"/>
<path d="M165.245 127.703C166.168 128.938 167.689 129.364 168.642 128.649C169.596 127.938 169.621 126.357 168.701 125.123C167.778 123.889 166.259 123.466 165.304 124.177C164.35 124.889 164.323 126.469 165.245 127.703Z" fill="#F58A84"/>
<path d="M143.519 72.448C154.589 73.692 166.962 97.562 169.968 107.031C170.915 110.02 175.859 120.818 170.577 124.938C168.382 126.646 165.708 127.854 163.009 127.374C158.695 126.609 150.05 115.734 148.123 113.296C144.317 108.474 140.714 103.468 137.21 98.425C135.844 96.459 134.478 94.496 133.145 92.506C125.327 80.836 135.748 71.572 143.519 72.448Z" fill="#7F2E15"/>
<path d="M159.101 123.959C159.7 125.811 162.181 126.666 164.645 125.871C167.111 125.072 168.626 122.929 168.027 121.076C167.43 119.227 164.947 118.369 162.481 119.164C160.015 119.963 158.501 122.106 159.101 123.959Z" fill="#F58A84"/>
<path d="M154.311 111.544C154.311 155.553 123.972 180.076 86.55 180.076C49.126 180.076 18.79 155.553 18.79 111.544C18.79 67.535 49.126 9.237 86.55 9.237C123.972 9.237 154.311 67.535 154.311 111.544Z" fill="#8D2E15"/>
<path d="M140.803 139.111C140.803 165.47 116.513 180.16 86.55 180.16C56.587 180.16 32.296 165.47 32.296 139.111C32.296 112.755 56.587 77.833 86.55 77.833C116.513 77.833 140.803 112.755 140.803 139.111Z" fill="#F9C19E"/>
<path d="M107.816 54.852C107.816 44.816 98.295 39.716 86.55 39.716C74.802 39.716 65.282 44.816 65.282 54.852C65.282 64.884 74.802 78.128 86.55 78.128C98.295 78.129 107.816 64.885 107.816 54.852Z" fill="#F9C19E"/>
<path d="M80.991 77.158C78.155 77.158 75.72 74.444 75.198 70.699C75.179 70.545 75.286 70.404 75.436 70.385C75.586 70.364 75.7329 70.468 75.7519 70.623C76.2349 74.085 78.439 76.599 80.99 76.599C83.543 76.599 85.746 74.085 86.228 70.623C86.249 70.468 86.3939 70.367 86.5439 70.385C86.6979 70.404 86.806 70.545 86.784 70.699C86.263 74.444 83.829 77.158 80.991 77.158Z" fill="#1D1D1B"/>
<path d="M92.1059 77.158C89.2719 77.158 86.8349 74.444 86.3149 70.699C86.2939 70.545 86.399 70.404 86.553 70.385C86.703 70.364 86.847 70.468 86.868 70.623C87.352 74.085 89.554 76.599 92.105 76.599C94.658 76.599 96.861 74.085 97.343 70.623C97.364 70.468 97.511 70.367 97.659 70.385C97.813 70.404 97.92 70.545 97.899 70.699C97.378 74.444 94.9419 77.158 92.1059 77.158Z" fill="#1D1D1B"/>
<path d="M94.282 64.2C94.282 60.919 90.819 60.419 86.549 60.419C82.28 60.419 78.818 60.919 78.818 64.2C78.818 67.482 82.281 71.813 86.549 71.813C90.819 71.813 94.282 67.482 94.282 64.2Z" fill="#4D2822"/>
<path d="M92.925 70.851C92.784 70.851 92.65 70.767 92.593 70.626C92.52 70.441 92.61 70.233 92.792 70.159C92.855 70.136 99.106 67.66 105.011 67.418C105.213 67.429 105.373 67.565 105.382 67.764C105.392 67.962 105.236 68.126 105.038 68.137C99.258 68.371 93.12 70.801 93.058 70.825C93.015 70.844 92.97 70.851 92.925 70.851Z" fill="#1D1D1B"/>
<path d="M106.806 72.673C106.779 72.673 106.751 72.669 106.724 72.662C100.406 71.199 93.039 72.008 92.965 72.019C92.769 72.038 92.593 71.902 92.569 71.704C92.546 71.51 92.687 71.331 92.885 71.307C92.96 71.301 100.444 70.479 106.885 71.965C107.079 72.008 107.198 72.199 107.154 72.395C107.116 72.559 106.968 72.673 106.806 72.673Z" fill="#1D1D1B"/>
<path d="M104.112 76.206C104.063 76.206 104.012 76.195 103.963 76.176C98.995 73.924 92.797 73.37 92.734 73.367C92.537 73.35 92.39 73.176 92.407 72.977C92.425 72.78 92.597 72.645 92.796 72.652C92.857 72.659 99.181 73.222 104.261 75.524C104.441 75.605 104.521 75.816 104.439 75.998C104.379 76.129 104.248 76.206 104.112 76.206Z" fill="#1D1D1B"/>
<path d="M80.173 70.851C80.128 70.851 80.0831 70.844 80.0401 70.825C79.9791 70.802 73.8371 68.372 68.0601 68.137C67.8631 68.126 67.708 67.962 67.716 67.764C67.726 67.566 67.886 67.429 68.089 67.418C73.991 67.66 80.2431 70.136 80.3061 70.159C80.4901 70.233 80.5791 70.441 80.5051 70.626C80.4491 70.767 80.315 70.851 80.173 70.851Z" fill="#1D1D1B"/>
<path d="M66.292 72.673C66.13 72.673 65.983 72.559 65.944 72.395C65.9 72.2 66.019 72.008 66.212 71.965C72.653 70.475 80.139 71.301 80.214 71.307C80.411 71.33 80.552 71.509 80.531 71.704C80.507 71.902 80.328 72.039 80.134 72.019C80.061 72.008 72.697 71.2 66.375 72.662C66.347 72.669 66.319 72.673 66.292 72.673Z" fill="#1D1D1B"/>
<path d="M68.985 76.206C68.848 76.206 68.7191 76.129 68.6601 75.998C68.5781 75.816 68.657 75.606 68.838 75.524C73.918 73.222 80.24 72.659 80.304 72.652C80.495 72.638 80.6731 72.78 80.6911 72.977C80.7091 73.175 80.562 73.35 80.366 73.367C80.303 73.37 74.0991 73.927 69.1331 76.176C69.0871 76.195 69.035 76.206 68.985 76.206Z" fill="#1D1D1B"/>
<path d="M70.14 33.872C70.14 35.976 68.433 37.68 66.33 37.68C64.226 37.68 62.52 35.976 62.52 33.872C62.52 31.768 64.225 30.059 66.33 30.059C68.433 30.06 70.14 31.768 70.14 33.872Z" fill="black"/>
<path d="M66.058 32.684C66.058 33.338 65.527 33.872 64.87 33.872C64.216 33.872 63.682 33.338 63.682 32.684C63.682 32.027 64.215 31.496 64.87 31.496C65.526 31.496 66.058 32.026 66.058 32.684Z" fill="white"/>
<path d="M64.722 35.181C64.722 35.469 64.49 35.7 64.204 35.7C63.916 35.7 63.683 35.469 63.683 35.181C63.683 34.896 63.916 34.663 64.204 34.663C64.489 34.663 64.722 34.896 64.722 35.181Z" fill="white"/>
<path d="M110.579 33.872C110.579 35.976 108.873 37.68 106.77 37.68C104.666 37.68 102.959 35.976 102.959 33.872C102.959 31.768 104.666 30.059 106.77 30.059C108.873 30.06 110.579 31.768 110.579 33.872Z" fill="black"/>
<path d="M106.499 32.684C106.499 33.338 105.967 33.872 105.311 33.872C104.657 33.872 104.125 33.338 104.125 32.684C104.125 32.027 104.656 31.496 105.311 31.496C105.967 31.496 106.499 32.026 106.499 32.684Z" fill="white"/>
<path d="M105.163 35.181C105.163 35.469 104.93 35.7 104.643 35.7C104.356 35.7 104.125 35.469 104.125 35.181C104.125 34.896 104.355 34.663 104.643 34.663C104.931 34.663 105.163 34.896 105.163 35.181Z" fill="white"/>
</svg>
