<svg width="182" height="200" viewBox="0 0 182 200" fill="none" xmlns="http://www.w3.org/2000/svg">
<path d="M99.446 140.049C101.003 139.492 104.435 140.451 106.017 140.622C111.209 141.187 116.413 141.84 121.579 142.602C132.755 144.25 144.497 146.378 154.414 151.992C156.71 153.293 159.792 155.598 159.461 158.635C159.167 161.323 155.594 162.73 153.189 161.695C153.189 161.695 156.679 171.453 148.078 172.94C148.078 172.94 143.551 173.731 140.447 171.926C140.447 171.926 142.397 176.177 138.896 177.896C127.654 183.415 85.764 144.925 99.446 140.049Z" fill="#CC2605"/>
<path d="M85.892 194.533L79.7769 182.142V164.308C79.7769 162.574 78.373 161.171 76.64 161.171C74.91 161.171 73.505 162.573 73.505 164.308V180.891L60.572 187.035C59.007 187.779 58.341 189.648 59.083 191.214C59.62 192.343 60.746 193.006 61.918 193.006C62.37 193.006 62.825 192.905 63.262 192.701L69.967 189.514L67.085 195.501C66.335 197.061 66.993 198.937 68.554 199.687C68.992 199.897 69.454 199.999 69.909 199.999C71.075 199.999 72.198 199.341 72.739 198.221L76.677 190.03L80.269 197.308C81.035 198.86 82.917 199.498 84.468 198.73C86.022 197.968 86.659 196.087 85.892 194.533Z" fill="#F5A636"/>
<path d="M95.462 194.533L101.577 182.142V164.308C101.577 162.574 102.981 161.171 104.713 161.171C106.445 161.171 107.85 162.573 107.85 164.308V180.891L120.783 187.035C122.347 187.779 123.013 189.648 122.271 191.214C121.734 192.343 120.609 193.006 119.435 193.006C118.984 193.006 118.528 192.905 118.093 192.701L111.39 189.514L114.268 195.501C115.017 197.061 114.363 198.937 112.801 199.687C112.363 199.897 111.9 199.999 111.444 199.999C110.277 199.999 109.156 199.341 108.617 198.221L104.679 190.03L101.085 197.308C100.318 198.86 98.4371 199.498 96.8871 198.73C95.3321 197.968 94.696 196.087 95.462 194.533Z" fill="#F5A636"/>
<path d="M46.168 92.194C46.168 92.194 50.199 78.605 35.702 80.095C29.86 80.699 24.009 82.364 18.681 84.809C12.24 87.767 5.70497 90.791 1.66497 96.874C0.594972 98.488 -0.439011 101.34 0.856989 103.184C1.28099 103.786 2.06998 104.123 2.75299 104.318C3.29499 104.474 6.41497 104.852 6.68597 104.311C6.68597 104.313 1.77299 114.149 10.646 116.804C10.646 116.804 15.316 118.212 18.815 116.702C18.815 116.702 15.977 121.362 19.689 123.187C24.868 125.734 40.404 112.501 46.168 92.194Z" fill="#D79A57"/>
<path d="M135.185 92.194C135.185 92.194 131.156 78.605 145.652 80.095C151.496 80.699 157.345 82.364 162.673 84.809C169.114 87.767 175.649 90.791 179.687 96.874C180.759 98.488 181.792 101.34 180.497 103.184C180.073 103.786 179.283 104.123 178.599 104.318C178.056 104.474 174.937 104.852 174.667 104.311C174.667 104.313 179.58 114.149 170.704 116.804C170.704 116.804 166.036 118.212 162.539 116.702C162.539 116.702 165.376 121.362 161.663 123.187C156.486 125.734 140.951 112.501 135.185 92.194Z" fill="#D79A57"/>
<path d="M150.878 112.144C150.878 151.241 123.926 173.032 90.679 173.032C57.431 173.032 30.476 151.241 30.476 112.144C30.476 73.045 57.431 21.25 90.679 21.25C123.926 21.25 150.878 73.046 150.878 112.144Z" fill="#AF672C"/>
<path d="M138.36 136.954C138.36 160.12 117.01 173.032 90.678 173.032C64.342 173.032 42.992 160.12 42.992 136.954C42.992 113.789 64.342 83.098 90.678 83.098C117.011 83.098 138.36 113.789 138.36 136.954Z" fill="#D79A57"/>
<path d="M82.444 45.069C82.444 47.488 80.483 49.447 78.066 49.447C75.649 49.447 73.688 47.488 73.688 45.069C73.688 42.65 75.649 40.691 78.066 40.691C80.483 40.691 82.444 42.65 82.444 45.069Z" fill="#431827"/>
<path d="M77.755 43.705C77.755 44.461 77.144 45.069 76.392 45.069C75.636 45.069 75.025 44.461 75.025 43.705C75.025 42.953 75.636 42.341 76.392 42.341C77.143 42.341 77.755 42.953 77.755 43.705Z" fill="white"/>
<path d="M76.221 46.575C76.221 46.906 75.952 47.172 75.622 47.172C75.294 47.172 75.024 46.906 75.024 46.575C75.024 46.247 75.293 45.978 75.622 45.978C75.952 45.978 76.221 46.247 76.221 46.575Z" fill="white"/>
<path d="M107.665 45.069C107.665 47.488 105.705 49.447 103.288 49.447C100.869 49.447 98.91 47.488 98.91 45.069C98.91 42.65 100.869 40.691 103.288 40.691C105.705 40.691 107.665 42.65 107.665 45.069Z" fill="#431827"/>
<path d="M102.976 43.705C102.976 44.461 102.366 45.069 101.613 45.069C100.859 45.069 100.248 44.461 100.248 43.705C100.248 42.953 100.859 42.341 101.613 42.341C102.365 42.341 102.976 42.953 102.976 43.705Z" fill="white"/>
<path d="M101.44 46.575C101.44 46.906 101.172 47.172 100.845 47.172C100.514 47.172 100.246 46.906 100.246 46.575C100.246 46.247 100.514 45.978 100.845 45.978C101.173 45.978 101.44 46.247 101.44 46.575Z" fill="white"/>
<path d="M105.952 60.065C105.952 60.065 101.172 54.05 90.198 54.632C79.225 55.21 75.404 61.573 75.404 61.573C75.404 61.573 79.922 71.216 90.678 78.35C90.679 78.352 103.222 68.51 105.952 60.065Z" fill="#DC722F"/>
<path d="M105.952 60.021C105.952 60.021 101.65 53.152 90.679 53.62C79.704 54.085 75.405 61.239 75.405 61.239C75.405 61.239 79.923 68.397 90.679 74.156C90.679 74.156 103.222 66.836 105.952 60.021Z" fill="#F5A636"/>
<path d="M86.125 32.381C86.125 32.381 70.1781 17.576 77.5171 5.45301C77.5171 5.45301 81.21 -1.03499 89.437 0.143013C97.66 1.32101 98.677 7.62702 98.677 7.62702C98.677 7.62702 106.702 3.00801 112.341 8.11201C117.978 13.219 114.92 18.171 114.92 18.171C114.92 18.171 120.373 16.966 121.754 24.125C123.13 31.285 116.879 32.319 116.879 32.319C116.879 32.319 110.326 24.489 97.881 26.047C88.567 27.215 86.125 32.381 86.125 32.381Z" fill="#CC2605"/>
</svg>
