<svg width="179" height="200" viewBox="0 0 179 200" fill="none" xmlns="http://www.w3.org/2000/svg">
<path d="M77.767 179.898V159.314C77.767 157.274 76.113 155.619 74.07 155.619C72.027 155.619 70.373 157.274 70.373 159.314V178.694C71.333 181.758 74.966 181.371 77.767 179.898Z" fill="#35271F"/>
<path d="M68.911 181.703C68.753 180.793 67.763 176.181 63.755 174.806C60.991 173.859 58.017 174.819 54.903 177.651C52.526 179.816 50.342 182.154 48.495 184.786C46.806 187.193 45.02 190.436 46.421 193.433C47.282 195.272 49.575 195.518 51.109 194.33C52.849 192.979 53.318 190.459 54.554 188.685C56.025 186.573 57.859 184.71 59.755 182.984C60.542 182.267 61.079 181.937 61.39 181.79C61.56 182.104 61.74 182.582 61.814 182.96C62.164 184.906 64.025 186.205 65.972 185.869C67.935 185.529 69.249 183.665 68.911 181.703Z" fill="#4F3E34"/>
<path d="M75.368 181.344C75.007 180.493 72.991 176.229 68.774 175.807C65.878 175.511 63.19 177.129 60.807 180.6C55.377 188.508 55.069 192.871 55.061 193.663C55.061 193.663 54.803 196.642 57.643 197.003C60.131 197.319 61.358 195.81 62.268 193.718C62.27 193.76 62.27 193.802 62.264 193.845C62.871 190.539 64.881 187.403 66.748 184.681C67.35 183.804 67.799 183.361 68.068 183.146C68.304 183.412 68.588 183.837 68.746 184.189C69.533 186.005 71.641 186.847 73.459 186.071C75.294 185.29 76.147 183.175 75.368 181.344Z" fill="#4F3E34"/>
<path d="M82.771 181.354C82.269 180.581 79.541 176.715 75.32 177.044C72.41 177.26 70.049 179.311 68.3 183.142C64.587 191.283 64.73 195.612 64.872 196.794C64.872 196.794 64.716 199.173 67.239 199.849C69.759 200.525 72.302 198.951 72.048 195.265C72.138 194.023 72.612 191.064 74.859 186.132C75.298 185.165 75.666 184.651 75.892 184.394C76.171 184.613 76.523 184.982 76.742 185.302C77.83 186.95 80.051 187.418 81.711 186.339C83.378 185.254 83.854 183.023 82.771 181.354Z" fill="#4F3E34"/>
<path d="M96.819 179.898V159.314C96.819 157.274 98.475 155.619 100.518 155.619C102.559 155.619 104.215 157.274 104.215 159.314V178.694C103.251 181.758 99.622 181.371 96.819 179.898Z" fill="#35271F"/>
<path d="M105.679 181.703C105.835 180.793 106.823 176.181 110.833 174.806C113.595 173.859 116.571 174.819 119.685 177.651C122.062 179.816 124.244 182.154 126.093 184.786C127.781 187.193 129.566 190.436 128.165 193.433C127.306 195.272 125.013 195.518 123.48 194.33C121.738 192.979 121.271 190.459 120.035 188.685C118.564 186.573 116.728 184.71 114.834 182.984C114.049 182.267 113.508 181.937 113.197 181.79C113.029 182.104 112.849 182.582 112.775 182.96C112.425 184.906 110.562 186.205 108.615 185.869C106.651 185.529 105.339 183.665 105.679 181.703Z" fill="#4F3E34"/>
<path d="M99.22 181.344C99.579 180.493 101.597 176.229 105.814 175.807C108.71 175.511 111.396 177.129 113.781 180.6C119.209 188.508 119.519 192.871 119.525 193.663C119.525 193.663 119.785 196.642 116.943 197.003C114.455 197.319 113.228 195.81 112.32 193.718C112.316 193.76 112.316 193.802 112.324 193.845C111.717 190.539 109.707 187.403 107.84 184.681C107.238 183.804 106.787 183.361 106.52 183.146C106.284 183.412 106 183.837 105.842 184.189C105.055 186.005 102.947 186.847 101.127 186.071C99.294 185.29 98.44 183.175 99.22 181.344Z" fill="#4F3E34"/>
<path d="M91.817 181.354C92.319 180.581 95.046 176.715 99.268 177.044C102.178 177.26 104.539 179.311 106.286 183.142C109.999 191.283 109.856 195.612 109.716 196.794C109.716 196.794 109.87 199.173 107.349 199.849C104.828 200.525 102.286 198.951 102.54 195.265C102.448 194.023 101.976 191.064 99.727 186.132C99.288 185.165 98.92 184.651 98.694 184.394C98.417 184.613 98.063 184.982 97.848 185.302C96.756 186.95 94.537 187.418 92.877 186.339C91.208 185.254 90.733 183.023 91.817 181.354Z" fill="#4F3E34"/>
<path d="M97.358 121.125C97.358 121.125 139.626 198.919 152.496 186.543C160.972 178.392 86.069 80.84 97.358 121.125Z" fill="#2DAEE8"/>
<path d="M97.62 131.626C97.62 131.626 158.974 195.453 168.108 180.111C174.124 170.009 76.069 95.768 97.62 131.626Z" fill="#E26F02"/>
<path d="M99.542 138.615C99.542 138.615 172.56 188.683 178.396 171.808C182.237 160.696 71.169 107.869 99.542 138.615Z" fill="#F39F00"/>
<path d="M158.286 101.711C158.286 147.817 126.503 173.514 87.294 173.514C48.085 173.514 16.3 147.816 16.3 101.711C16.3 55.606 47.183 0 86.392 0C125.599 0 158.286 55.606 158.286 101.711Z" fill="#2DAEE8"/>
<path d="M132.386 132.428C132.386 158.81 111.685 173.514 86.15 173.514C60.615 173.514 39.912 158.81 39.912 132.428C39.912 106.043 60.615 71.089 86.15 71.089C111.685 71.089 132.386 106.043 132.386 132.428Z" fill="#EF9500"/>
<path d="M36.245 85.977C35.251 80.784 33.503 74.332 29.634 70.444C19.976 60.744 11.068 74.081 7.52498 80.883C0.608979 94.178 -0.731021 113.325 6.05998 128.022C8.75698 133.858 20.509 149.685 29.486 152.317C29.72 152.387 30.547 129.723 29.918 126.297C30.693 127.12 32.086 132.973 33.539 133.122C33.803 133.146 34.041 117.344 33.555 116.088C34.129 116.633 34.991 122.612 35.088 122.516C36.573 120.967 38.104 95.688 36.245 85.977Z" fill="#054899"/>
<path d="M37.151 86.643C36.118 81.248 34.305 74.547 30.282 70.506C20.253 60.429 10.997 74.283 7.31898 81.352C0.130982 95.162 -1.26102 115.053 5.79598 130.318C6.48098 131.803 7.73698 133.916 9.37198 136.294C10.218 137.335 11.122 138.3 12.091 139.145C10.538 133.109 9.33698 126.928 10.212 120.686C10.263 120.324 17.058 135.959 22.415 142.331C23.14 137.136 22.11 131.847 22.061 126.634C22.059 126.215 28.049 136.757 30.727 141.878C30.86 136.028 30.879 130.163 30.579 128.526C31.386 129.383 32.901 136.286 34.139 138.149C34.291 138.376 34.86 119.225 34.356 117.922C34.952 118.487 35.848 124.702 35.946 124.599C37.493 122.991 39.083 96.731 37.151 86.643Z" fill="#165EC2"/>
<path d="M37.339 86.238C36.22 80.406 34.259 73.156 29.913 68.789C19.063 57.891 9.05399 72.875 5.07499 80.517C0.361994 89.572 -0.751008 101.497 0.441992 111.466C0.578992 112.603 5.17099 97.144 10.426 89.667C10.524 89.526 11.754 113.518 14.36 120.216C16.704 112.198 18.835 98.95 20.864 94.887C21.077 94.468 20.583 116.246 26.272 126.009C29.098 114.482 30.13 113.99 31.208 105.773C31.269 105.302 34.024 119.361 36.269 126.861C37.858 122.935 39.333 96.644 37.339 86.238Z" fill="#98E3FA"/>
<path d="M138.753 85.977C139.746 80.784 141.492 74.332 145.364 70.444C155.019 60.744 163.928 74.081 167.471 80.883C174.389 94.178 175.73 113.325 168.939 128.022C166.24 133.858 154.49 149.685 145.511 152.317C145.279 152.387 144.452 129.723 145.08 126.297C144.306 127.12 142.911 132.973 141.458 133.122C141.196 133.146 140.958 117.344 141.443 116.088C140.868 116.633 140.007 122.612 139.911 122.516C138.424 120.967 136.892 95.688 138.753 85.977Z" fill="#054899"/>
<path d="M137.845 86.643C138.878 81.248 140.693 74.547 144.713 70.506C154.744 60.429 163.998 74.283 167.679 81.352C174.865 95.162 176.256 115.053 169.202 130.318C168.514 131.803 167.261 133.916 165.624 136.294C164.777 137.335 163.874 138.3 162.907 139.145C164.456 133.109 165.66 126.928 164.784 120.686C164.735 120.324 157.938 135.959 152.582 142.331C151.856 137.136 152.886 131.847 152.936 126.634C152.939 126.215 146.949 136.757 144.271 141.878C144.137 136.028 144.119 130.163 144.418 128.526C143.613 129.383 142.097 136.286 140.857 138.149C140.707 138.376 140.137 119.225 140.641 117.922C140.043 118.487 139.15 124.702 139.049 124.599C137.505 122.991 135.913 96.731 137.845 86.643Z" fill="#165EC2"/>
<path d="M137.657 86.238C138.775 80.406 140.738 73.156 145.085 68.789C155.935 57.891 165.943 72.875 169.921 80.517C174.633 89.572 175.748 101.497 174.553 111.466C174.418 112.603 169.824 97.144 164.572 89.667C164.473 89.526 163.243 113.518 160.635 120.216C158.292 112.198 156.163 98.95 154.131 94.887C153.921 94.468 154.415 116.246 148.726 126.009C145.899 114.482 144.868 113.99 143.788 105.773C143.727 105.302 140.974 119.361 138.727 126.861C137.138 122.935 135.665 96.644 137.657 86.238Z" fill="#98E3FA"/>
<path d="M114.815 64.945L123.663 66.955C123.263 62.584 112.14 51.618 112.14 51.618C112.14 51.618 115.62 49.606 120.849 30.623C123.968 19.305 113.501 14.506 104.54 12.475C103.317 12.623 102.106 12.86 100.919 13.268C97.204 14.545 89.581 18.26 89.837 17.865C90.714 16.511 91.653 15.209 92.706 13.995C87.694 14.794 78.556 20.471 78.517 20.094C78.306 17.995 79.345 15.688 80.845 14.033C77.911 15.056 71.968 18.545 72.097 18.103C72.921 15.286 74.742 13.128 76.933 11.333C68.074 12.316 49.742 16.112 53.738 30.624C58.967 49.607 62.447 51.619 62.447 51.619C62.447 51.619 51.324 62.585 50.922 66.956L59.772 64.946C59.772 64.946 50.52 73.339 50.922 76.958L72.955 66.956L82.848 69.345L82.453 71.587L87.295 70.417L92.135 71.587L91.742 69.345L101.635 66.956L123.664 76.958C124.067 73.338 114.815 64.945 114.815 64.945Z" fill="#FFFFF3"/>
<path d="M73.438 25.463C73.438 28.312 71.127 30.623 68.276 30.623C65.426 30.623 63.114 28.312 63.114 25.463C63.114 22.611 65.427 20.299 68.276 20.299C71.128 20.299 73.438 22.61 73.438 25.463Z" fill="#4E292C"/>
<path d="M67.909 23.854C67.909 24.741 67.188 25.463 66.3 25.463C65.411 25.463 64.691 24.74 64.691 23.854C64.691 22.964 65.412 22.244 66.3 22.244C67.188 22.243 67.909 22.964 67.909 23.854Z" fill="white"/>
<path d="M66.099 27.238C66.099 27.627 65.783 27.941 65.396 27.941C65.007 27.941 64.691 27.627 64.691 27.238C64.691 26.849 65.007 26.533 65.396 26.533C65.782 26.533 66.099 26.85 66.099 27.238Z" fill="white"/>
<path d="M110.311 25.463C110.311 28.312 108.001 30.623 105.149 30.623C102.297 30.623 99.987 28.312 99.987 25.463C99.987 22.611 102.298 20.299 105.149 20.299C108.001 20.299 110.311 22.61 110.311 25.463Z" fill="#4E292C"/>
<path d="M104.784 23.854C104.784 24.741 104.061 25.463 103.175 25.463C102.284 25.463 101.564 24.74 101.564 23.854C101.564 22.964 102.285 22.244 103.175 22.244C104.062 22.243 104.784 22.964 104.784 23.854Z" fill="white"/>
<path d="M102.972 27.238C102.972 27.627 102.658 27.941 102.269 27.941C101.878 27.941 101.564 27.627 101.564 27.238C101.564 26.849 101.878 26.533 102.269 26.533C102.657 26.533 102.972 26.85 102.972 27.238Z" fill="white"/>
<path d="M107.651 53.057L111.878 51.984C111.878 51.984 112.624 75.85 98.896 75.313C85.171 74.777 68.277 75.323 68.277 75.323C68.277 75.323 82.667 43.94 107.651 53.057Z" fill="#FDAD24"/>
<path d="M101.038 28.668C96.214 24.826 90.243 23.01 84.243 24.228L84.247 24.218C84.247 24.218 56.669 29.144 55.384 46.947C54.099 64.748 63.958 83.99 67.404 88.982C67.404 88.982 69.59 72.294 83.162 66.226C96.732 60.158 111.717 72.295 111.557 51.056C111.485 41.76 107.2 33.573 101.038 28.668Z" fill="#FFD626"/>
</svg>
